<svg width="15" height="15" viewBox="0 0 15 15" fill="none" xmlns="http://www.w3.org/2000/svg">
<g clip-path="url(#clip0)">
<path d="M14.6599 2.76551H8.69928C8.55609 2.10321 7.94749 1.58412 7.2494 1.58412C6.53341 1.58412 5.94272 2.08531 5.79952 2.76551H0.322196C0.143198 2.76551 0 2.9087 0 3.0877C0 3.2667 0.143198 3.4099 0.322196 3.4099H5.78162C5.92482 4.07219 6.53341 4.59128 7.2315 4.59128C7.94749 4.59128 8.53819 4.09009 8.68138 3.4099H14.6599C14.8389 3.4099 14.9821 3.2667 14.9821 3.0877C14.9821 2.9087 14.8389 2.76551 14.6599 2.76551ZM7.2494 3.96479C6.78401 3.96479 6.39021 3.5889 6.39021 3.1056C6.39021 2.62231 6.76611 2.24641 7.2494 2.24641C7.7148 2.24641 8.10859 2.62231 8.10859 3.1056C8.10859 3.571 7.7327 3.96479 7.2494 3.96479Z" fill="#FDE8E9"/>
<path d="M14.6778 7.18676H5.63842C5.49523 6.52446 4.88663 6.00537 4.18854 6.00537C3.47255 6.00537 2.88186 6.50656 2.73866 7.18676H0.322196C0.143198 7.18676 0 7.32995 0 7.50895C0 7.68795 0.143198 7.83115 0.322196 7.83115H2.73866C2.88186 8.49344 3.49045 9.01253 4.18854 9.01253C4.90453 9.01253 5.49523 8.51134 5.63842 7.83115H14.6778C14.8568 7.83115 15 7.68795 15 7.50895C15 7.32995 14.8568 7.18676 14.6778 7.18676ZM4.18854 8.36814C3.72315 8.36814 3.32936 7.99225 3.32936 7.50895C3.32936 7.04356 3.72315 6.64976 4.18854 6.64976C4.65394 6.64976 5.04773 7.02566 5.04773 7.50895C5.04773 7.97435 4.67184 8.36814 4.18854 8.36814Z" fill="#FDE8E9"/>
<path d="M14.6599 11.5901H11.8496C11.7064 10.9278 11.0979 10.4087 10.3998 10.4087C9.68377 10.4087 9.09308 10.9099 8.94988 11.5901H0.322196C0.143198 11.5901 0 11.7333 0 11.9123C0 12.0913 0.143198 12.2345 0.322196 12.2345H8.93198C9.07518 12.8968 9.68377 13.4159 10.3819 13.4159C11.0979 13.4159 11.6885 12.9147 11.8317 12.2345H14.6599C14.8389 12.2345 14.9821 12.0913 14.9821 11.9123C14.9821 11.7333 14.8389 11.5901 14.6599 11.5901ZM10.3819 12.7894C9.91647 12.7894 9.52267 12.4135 9.52267 11.9302C9.52267 11.4469 9.91647 11.071 10.3819 11.071C10.8473 11.071 11.241 11.4469 11.241 11.9302C11.241 12.4135 10.8652 12.7894 10.3819 12.7894Z" fill="#FDE8E9"/>
</g>
<defs>
<clipPath id="clip0">
<rect width="15" height="15" fill="white"/>
</clipPath>
</defs>
</svg>
