<svg width="63" height="64" viewBox="0 0 63 64" fill="none" xmlns="http://www.w3.org/2000/svg">
<path d="M40 18C27.35 18 17 28.35 17 41C17 53.65 27.35 64 40 64C52.65 64 63 53.65 63 41C63 28.35 52.65 18 40 18ZM40 62.4666C28.1934 62.4666 18.5334 52.8066 18.5334 41C18.5334 29.1934 28.1934 19.5334 40 19.5334C51.8066 19.5334 61.4666 29.1934 61.4666 41C61.4666 52.8066 51.8066 62.4666 40 62.4666Z" fill="#FDE8E9"/>
<path d="M46.9 34.8666C46.44 34.8666 46.1334 35.1733 46.1334 35.6333V46.3666C46.1334 46.8266 46.44 47.1333 46.9 47.1333C47.36 47.1333 47.6666 46.8266 47.6666 46.3666V35.6334C47.6666 35.1734 47.36 34.8666 46.9 34.8666Z" fill="#FDE8E9"/>
<path d="M51.5 34.8666C51.04 34.8666 50.7334 35.1733 50.7334 35.6333V46.3666C50.7334 46.8266 51.04 47.1333 51.5 47.1333C51.96 47.1333 52.2666 46.8266 52.2666 46.3666V35.6334C52.2666 35.1734 51.96 34.8666 51.5 34.8666Z" fill="#FDE8E9"/>
<path d="M43.45 34.9434C43.0666 34.79 42.6066 34.8667 42.3766 35.25L36.2433 45.9834C36.0899 46.3667 36.1666 46.8267 36.5499 47.0567C36.7033 47.1334 36.7799 47.1334 36.9333 47.1334C37.1633 47.1334 37.4699 46.98 37.6233 46.75L43.7566 36.0166C43.91 35.6334 43.8334 35.1734 43.45 34.9434Z" fill="#FDE8E9"/>
<path d="M35.7834 40.31L26.5834 34.9434C26.3534 34.79 26.0467 34.79 25.8167 34.9434C25.5867 35.0967 25.4334 35.3267 25.4334 35.6334V46.3667C25.4334 46.6734 25.5867 46.9034 25.8167 47.0567C25.9701 47.1334 26.0467 47.1334 26.2001 47.1334C26.3534 47.1334 26.4301 47.1334 26.5834 47.0567L35.7834 41.6901C36.0134 41.5367 36.1668 41.3067 36.1668 41.0001C36.1668 40.6935 36.0134 40.4634 35.7834 40.31ZM26.9666 44.9866V36.9366L33.8666 40.9233L26.9666 44.9866Z" fill="#FDE8E9"/>
<path d="M23.5015 17.4622L4.51116 0L4.49853 25.7985L10.2612 20.2845L13.6458 28L18.9264 25.6836L15.5418 17.9681L23.5015 17.4622ZM16.7651 24.8402L14.489 25.8388L10.8214 17.4782L6.14074 21.9568L6.14971 3.73531L19.5626 16.0689L13.0975 16.4797L16.7651 24.8402Z" fill="#FDE8E9"/>
</svg>
