<svg width="194" height="26" viewBox="0 0 194 26" fill="none" xmlns="http://www.w3.org/2000/svg">
<path d="M12.2222 24.3492C12.5702 24.3492 12.9057 24.2126 13.1672 23.9644C14.1547 23.0285 15.1068 22.149 15.9467 21.3732L15.951 21.3691C18.4137 19.0945 20.5403 17.1302 22.02 15.1951C23.674 13.0319 24.4444 10.9808 24.4444 8.74012C24.4444 6.56312 23.7557 4.5547 22.5053 3.08457C21.2399 1.59706 19.5036 0.777802 17.6157 0.777802C16.2047 0.777802 14.9124 1.26131 13.775 2.21478C13.201 2.69607 12.6806 3.28509 12.2222 3.97215C11.7636 3.28509 11.2435 2.69607 10.6693 2.21478C9.53182 1.26131 8.23959 0.777802 6.82856 0.777802C4.94084 0.777802 3.20438 1.59706 1.939 3.08457C0.688542 4.5547 -1.90735e-06 6.56312 -1.90735e-06 8.74012C-1.90735e-06 10.9808 0.770228 13.0319 2.42426 15.1949C3.90393 17.1302 6.03036 19.0943 8.49267 21.3687C9.33414 22.1458 10.2877 23.0267 11.2774 23.9648C11.5387 24.2126 11.8744 24.3492 12.2222 24.3492V24.3492ZM17.6157 2.3298C19.0989 2.3298 20.4614 2.97138 21.4527 4.13649C22.4586 5.31918 23.0127 6.95405 23.0127 8.74012C23.0127 10.6246 22.3665 12.31 20.9176 14.2049C19.5172 16.0364 17.4342 17.9603 15.0225 20.1881L15.018 20.1921C14.1748 20.9709 13.219 21.8539 12.2243 22.7966C11.2235 21.852 10.2662 20.9677 9.42142 20.1877C7.00983 17.9599 4.92704 16.0364 3.52664 14.2049C2.07794 12.31 1.43173 10.6246 1.43173 8.74012C1.43173 6.95405 1.98581 5.31918 2.99177 4.13649C3.98281 2.97138 5.34554 2.3298 6.82856 2.3298C7.91509 2.3298 8.91266 2.70415 9.79348 3.44235C10.5784 4.10051 11.1252 4.9325 11.4458 5.51465C11.6107 5.81401 11.9009 5.9927 12.2222 5.9927C12.5436 5.9927 12.8337 5.81401 12.9986 5.51465C13.319 4.9325 13.8658 4.10051 14.651 3.44235C15.5318 2.70415 16.5294 2.3298 17.6157 2.3298V2.3298Z" fill="#E33E3E"/>
<path d="M60.106 18.9424H80.0365V14.0681H77.417C77.1521 14.0681 76.9084 13.9211 76.7815 13.6849C76.6546 13.4486 76.6649 13.1608 76.8085 12.9345L80.1518 7.66181C80.285 7.45162 80.5142 7.32465 80.7603 7.32465C81.0064 7.32465 81.2355 7.45162 81.3689 7.66181L84.7122 12.9344C84.8556 13.1607 84.866 13.4484 84.7392 13.6847C84.6124 13.921 84.3686 14.068 84.1036 14.068H81.4842V19.6776C81.4842 20.0837 81.1601 20.413 80.7603 20.413H60.106C59.7063 20.413 59.3822 20.0837 59.3822 19.6776C59.3822 19.2716 59.7062 18.9424 60.106 18.9424ZM80.7603 9.41796L78.7444 12.5973H82.7763L80.7603 9.41796Z" fill="#FDE8E9"/>
<path d="M55.0884 9.60132C55.2153 9.36502 55.4589 9.21807 55.724 9.21807H58.3434V3.60842C58.3434 3.20238 58.6676 2.87306 59.0673 2.87306H79.7215C80.1212 2.87306 80.4454 3.20238 80.4454 3.60842C80.4454 4.01445 80.1212 4.34377 79.7215 4.34377H59.7911V9.95343C59.7911 10.3595 59.467 10.6888 59.0673 10.6888H57.0513L59.0673 13.8681L61.8021 9.55523C62.0186 9.21378 62.4664 9.11525 62.8026 9.33524C63.1388 9.55511 63.2358 10.0103 63.0192 10.3516L59.6758 15.6242C59.5426 15.8344 59.3134 15.9614 59.0673 15.9614C58.8211 15.9614 58.592 15.8344 58.4587 15.6242L55.1154 10.3516C54.9719 10.1254 54.9615 9.83761 55.0884 9.60132Z" fill="#FDE8E9"/>
<path d="M136.243 1.65082H118.519C116.666 1.65082 115.159 3.17217 115.159 5.04272V15.9897C115.159 17.8561 116.66 19.375 118.507 19.3816V24.3492L125.581 19.3816H136.243C138.096 19.3816 139.603 17.86 139.603 15.9897V5.04272C139.603 3.17217 138.096 1.65082 136.243 1.65082V1.65082ZM138.171 15.9897C138.171 17.0628 137.306 17.936 136.243 17.936H125.131L119.94 21.5823V17.936H118.519C117.456 17.936 116.591 17.0628 116.591 15.9897V5.04272C116.591 3.96936 117.456 3.09642 118.519 3.09642H136.243C137.306 3.09642 138.171 3.96936 138.171 5.04272V15.9897Z" fill="#FDE8E9"/>
<path d="M122.143 6.0159H132.619V8.63494H122.143V6.0159Z" fill="#FDE8E9"/>
<path d="M122.143 9.50796H132.619V10.381H122.143V9.50796Z" fill="#FDE8E9"/>
<path d="M122.143 12.127H132.619V13.873H122.143V12.127Z" fill="#FDE8E9"/>
<g clip-path="url(#clip0)">
<path d="M188.891 9.01689C186.861 9.01689 185.208 7.36492 185.208 5.33385C185.208 3.30279 186.861 1.65082 188.891 1.65082C190.921 1.65082 192.574 3.30279 192.574 5.33385C192.574 7.36492 190.921 9.01689 188.891 9.01689ZM188.891 3.12403C187.673 3.12403 186.681 4.11493 186.681 5.33385C186.681 6.55278 187.673 7.54367 188.891 7.54367C190.109 7.54367 191.101 6.55278 191.101 5.33385C191.101 4.11493 190.109 3.12403 188.891 3.12403Z" fill="#FDE8E9"/>
<path d="M188.891 25.2222C186.861 25.2222 185.208 23.5703 185.208 21.5392C185.208 19.5081 186.861 17.8562 188.891 17.8562C190.921 17.8562 192.574 19.5081 192.574 21.5392C192.574 23.5703 190.921 25.2222 188.891 25.2222ZM188.891 19.3294C187.673 19.3294 186.681 20.3203 186.681 21.5392C186.681 22.7581 187.673 23.749 188.891 23.749C190.109 23.749 191.101 22.7581 191.101 21.5392C191.101 20.3203 190.109 19.3294 188.891 19.3294Z" fill="#FDE8E9"/>
<path d="M174.65 17.1196C172.62 17.1196 170.967 15.4676 170.967 13.4365C170.967 11.4055 172.62 9.7535 174.65 9.7535C176.68 9.7535 178.333 11.4055 178.333 13.4365C178.333 15.4676 176.68 17.1196 174.65 17.1196ZM174.65 11.2267C173.432 11.2267 172.44 12.2176 172.44 13.4365C172.44 14.6555 173.432 15.6464 174.65 15.6464C175.868 15.6464 176.86 14.6555 176.86 13.4365C176.86 12.2176 175.868 11.2267 174.65 11.2267Z" fill="#FDE8E9"/>
<path d="M177.214 12.7195C176.958 12.7195 176.708 12.5859 176.574 12.3483C176.372 11.9948 176.495 11.5448 176.849 11.3436L185.962 6.14796C186.315 5.94475 186.766 6.06848 186.966 6.42311C187.167 6.77667 187.044 7.22644 186.691 7.42786L177.578 12.6233C177.463 12.6881 177.338 12.7195 177.214 12.7195V12.7195Z" fill="#FDE8E9"/>
<path d="M186.327 20.8222C186.203 20.8222 186.078 20.7907 185.963 20.7251L176.85 15.5294C176.496 15.3282 176.374 14.8783 176.575 14.5247C176.775 14.1702 177.225 14.0474 177.579 14.2497L186.692 19.4452C187.045 19.6466 187.168 20.0964 186.967 20.4499C186.831 20.6886 186.582 20.8222 186.327 20.8222Z" fill="#FDE8E9"/>
</g>
<defs>
<clipPath id="clip0">
<rect width="23.5714" height="23.5714" fill="white" transform="translate(170 1.65082)"/>
</clipPath>
</defs>
</svg>
