<svg width="34" height="32" viewBox="0 0 34 32" fill="none" xmlns="http://www.w3.org/2000/svg">
<path d="M33.5 15.89C33.5 24.3584 26.145 31.28 17 31.28C7.85496 31.28 0.5 24.3584 0.5 15.89C0.5 7.4216 7.85496 0.5 17 0.5C26.145 0.5 33.5 7.4216 33.5 15.89Z" stroke="#FDE8E9"/>
<g clip-path="url(#clip0)">
<path d="M19.8763 9.76148H21.5863V6.7835C21.2912 6.74292 20.2767 6.65161 19.095 6.65161C16.6296 6.65161 14.9407 8.20225 14.9407 11.0522V13.6751H12.22V17.0043H14.9407V25.381H18.2763V17.0051H20.887L21.3014 13.6759H18.2756V11.3824C18.2763 10.4201 18.5355 9.76148 19.8763 9.76148V9.76148Z" fill="#FDE8E9"/>
</g>
<defs>
<clipPath id="clip0">
<rect width="18.731" height="18.7294" fill="white" transform="translate(7.39131 6.65163)"/>
</clipPath>
</defs>
</svg>
