<svg width="462" height="322" viewBox="0 0 462 322" fill="none" xmlns="http://www.w3.org/2000/svg">
<path d="M94.206 310.39C94.2433 310.427 94.262 310.563 94.262 310.796C94.262 311.02 94.2573 311.221 94.248 311.398L93.604 319H92.554L93.394 309.34H94.92L96.88 315.668C96.9546 315.911 97.0013 316.177 97.02 316.466H97.104C97.1133 316.214 97.16 315.948 97.244 315.668L99.218 309.34H100.73L101.514 319H100.464C100.063 313.773 99.862 311.071 99.862 310.894C99.862 310.707 99.8806 310.539 99.918 310.39H99.834L97.594 317.586L96.544 317.712L94.29 310.39H94.206ZM106.374 318.426C106.84 318.426 107.223 318.281 107.522 317.992C107.82 317.703 108.021 317.353 108.124 316.942C108.236 316.531 108.292 316.06 108.292 315.528C108.292 313.857 107.699 313.022 106.514 313.022C106.075 313.022 105.711 313.162 105.422 313.442C104.899 313.937 104.638 314.725 104.638 315.808C104.638 317.553 105.216 318.426 106.374 318.426ZM109.342 315.542C109.342 316.569 109.08 317.432 108.558 318.132C108.044 318.823 107.298 319.168 106.318 319.168C105.347 319.168 104.656 318.888 104.246 318.328C103.835 317.759 103.63 316.928 103.63 315.836C103.63 314.744 103.868 313.876 104.344 313.232C104.82 312.579 105.538 312.252 106.5 312.252C107.461 312.252 108.175 312.546 108.642 313.134C109.108 313.713 109.342 314.515 109.342 315.542ZM112.373 312.7C112.373 313.195 112.336 313.61 112.261 313.946H112.345C112.476 313.423 112.728 313.013 113.101 312.714C113.484 312.406 113.946 312.252 114.487 312.252C115.224 312.252 115.733 312.439 116.013 312.812C116.293 313.176 116.433 313.727 116.433 314.464C116.433 314.492 116.424 314.968 116.405 315.892C116.396 316.816 116.391 317.404 116.391 317.656C116.391 317.908 116.419 318.095 116.475 318.216C116.54 318.337 116.741 318.398 117.077 318.398L117.105 319.028C116.974 319.084 116.783 319.112 116.531 319.112C116.083 319.112 115.775 319.009 115.607 318.804C115.448 318.599 115.369 318.272 115.369 317.824C115.369 317.805 115.378 317.301 115.397 316.312C115.416 315.323 115.425 314.809 115.425 314.772C115.425 314.231 115.355 313.811 115.215 313.512C115.075 313.204 114.795 313.05 114.375 313.05C113.964 313.05 113.619 313.181 113.339 313.442C113.068 313.703 112.863 314.044 112.723 314.464C112.471 315.276 112.345 316.139 112.345 317.054V319H111.379V312.42L112.373 312.294V312.7Z" fill="#FDE8E9"/>
<path d="M18.4841 266V265.132H20.2061L20.2481 257.894L18.3161 259.14L17.8541 258.51L20.2901 256.606L21.2701 256.774V265.132H22.9361V266H18.4841ZM30.5214 264.516C30.2787 265.02 29.938 265.421 29.4994 265.72C29.07 266.019 28.5567 266.168 27.9594 266.168C27.362 266.168 26.8487 266.047 26.4194 265.804C25.9994 265.561 25.6774 265.216 25.4534 264.768C25.052 263.956 24.8514 262.855 24.8514 261.464C24.8514 260.12 25.0754 259 25.5234 258.104C25.766 257.628 26.1067 257.259 26.5454 256.998C26.9934 256.737 27.516 256.606 28.1134 256.606C28.72 256.606 29.2287 256.723 29.6394 256.956C30.0594 257.18 30.3814 257.507 30.6054 257.936C31.0254 258.739 31.2354 259.793 31.2354 261.1C31.2354 262.407 30.9974 263.545 30.5214 264.516ZM26.9094 264.978C27.1987 265.193 27.5534 265.3 27.9734 265.3C28.3934 265.3 28.7527 265.169 29.0514 264.908C29.3594 264.637 29.588 264.283 29.7374 263.844C30.0174 263.023 30.1574 262.108 30.1574 261.1C30.1574 260.101 30.0454 259.28 29.8214 258.636C29.5507 257.861 28.986 257.474 28.1274 257.474C27.698 257.474 27.3294 257.595 27.0214 257.838C26.7134 258.071 26.4847 258.393 26.3354 258.804C26.0647 259.551 25.9294 260.437 25.9294 261.464C25.9294 263.321 26.256 264.493 26.9094 264.978ZM38.2186 264.516C37.976 265.02 37.6353 265.421 37.1966 265.72C36.7673 266.019 36.254 266.168 35.6566 266.168C35.0593 266.168 34.546 266.047 34.1166 265.804C33.6966 265.561 33.3746 265.216 33.1506 264.768C32.7493 263.956 32.5486 262.855 32.5486 261.464C32.5486 260.12 32.7726 259 33.2206 258.104C33.4633 257.628 33.804 257.259 34.2426 256.998C34.6906 256.737 35.2133 256.606 35.8106 256.606C36.4173 256.606 36.926 256.723 37.3366 256.956C37.7566 257.18 38.0786 257.507 38.3026 257.936C38.7226 258.739 38.9326 259.793 38.9326 261.1C38.9326 262.407 38.6946 263.545 38.2186 264.516ZM34.6066 264.978C34.896 265.193 35.2506 265.3 35.6706 265.3C36.0906 265.3 36.45 265.169 36.7486 264.908C37.0566 264.637 37.2853 264.283 37.4346 263.844C37.7146 263.023 37.8546 262.108 37.8546 261.1C37.8546 260.101 37.7426 259.28 37.5186 258.636C37.248 257.861 36.6833 257.474 35.8246 257.474C35.3953 257.474 35.0266 257.595 34.7186 257.838C34.4106 258.071 34.182 258.393 34.0326 258.804C33.762 259.551 33.6266 260.437 33.6266 261.464C33.6266 263.321 33.9533 264.493 34.6066 264.978Z" fill="#FDE8E9"/>
<path d="M17.3641 233V232.622C17.8868 232.099 18.4374 231.507 19.0161 230.844C19.5948 230.172 19.9588 229.733 20.1081 229.528C20.2668 229.313 20.4674 229.024 20.7101 228.66C20.9528 228.296 21.1301 227.988 21.2421 227.736C21.5501 227.064 21.7041 226.481 21.7041 225.986C21.7041 225.491 21.5268 225.123 21.1721 224.88C20.8268 224.628 20.3508 224.502 19.7441 224.502C19.1468 224.502 18.5634 224.595 17.9941 224.782L17.7841 224.012C18.4841 223.741 19.2354 223.606 20.0381 223.606C20.8408 223.606 21.4988 223.816 22.0121 224.236C22.5254 224.647 22.7821 225.258 22.7821 226.07C22.7821 227.61 21.5501 229.635 19.0861 232.146L22.9781 232.104L23.0341 233H17.3641ZM30.5214 231.516C30.2787 232.02 29.938 232.421 29.4994 232.72C29.07 233.019 28.5567 233.168 27.9594 233.168C27.362 233.168 26.8487 233.047 26.4194 232.804C25.9994 232.561 25.6774 232.216 25.4534 231.768C25.052 230.956 24.8514 229.855 24.8514 228.464C24.8514 227.12 25.0754 226 25.5234 225.104C25.766 224.628 26.1067 224.259 26.5454 223.998C26.9934 223.737 27.516 223.606 28.1134 223.606C28.72 223.606 29.2287 223.723 29.6394 223.956C30.0594 224.18 30.3814 224.507 30.6054 224.936C31.0254 225.739 31.2354 226.793 31.2354 228.1C31.2354 229.407 30.9974 230.545 30.5214 231.516ZM26.9094 231.978C27.1987 232.193 27.5534 232.3 27.9734 232.3C28.3934 232.3 28.7527 232.169 29.0514 231.908C29.3594 231.637 29.588 231.283 29.7374 230.844C30.0174 230.023 30.1574 229.108 30.1574 228.1C30.1574 227.101 30.0454 226.28 29.8214 225.636C29.5507 224.861 28.986 224.474 28.1274 224.474C27.698 224.474 27.3294 224.595 27.0214 224.838C26.7134 225.071 26.4847 225.393 26.3354 225.804C26.0647 226.551 25.9294 227.437 25.9294 228.464C25.9294 230.321 26.256 231.493 26.9094 231.978ZM38.2186 231.516C37.976 232.02 37.6353 232.421 37.1966 232.72C36.7673 233.019 36.254 233.168 35.6566 233.168C35.0593 233.168 34.546 233.047 34.1166 232.804C33.6966 232.561 33.3746 232.216 33.1506 231.768C32.7493 230.956 32.5486 229.855 32.5486 228.464C32.5486 227.12 32.7726 226 33.2206 225.104C33.4633 224.628 33.804 224.259 34.2426 223.998C34.6906 223.737 35.2133 223.606 35.8106 223.606C36.4173 223.606 36.926 223.723 37.3366 223.956C37.7566 224.18 38.0786 224.507 38.3026 224.936C38.7226 225.739 38.9326 226.793 38.9326 228.1C38.9326 229.407 38.6946 230.545 38.2186 231.516ZM34.6066 231.978C34.896 232.193 35.2506 232.3 35.6706 232.3C36.0906 232.3 36.45 232.169 36.7486 231.908C37.0566 231.637 37.2853 231.283 37.4346 230.844C37.7146 230.023 37.8546 229.108 37.8546 228.1C37.8546 227.101 37.7426 226.28 37.5186 225.636C37.248 224.861 36.6833 224.474 35.8246 224.474C35.3953 224.474 35.0266 224.595 34.7186 224.838C34.4106 225.071 34.182 225.393 34.0326 225.804C33.762 226.551 33.6266 227.437 33.6266 228.464C33.6266 230.321 33.9533 231.493 34.6066 231.978Z" fill="#FDE8E9"/>
<path d="M17.6301 198.488C18.2554 199.029 18.9274 199.3 19.6461 199.3C20.3648 199.3 20.9154 199.127 21.2981 198.782C21.6901 198.427 21.8861 197.942 21.8861 197.326C21.8861 196.71 21.6994 196.257 21.3261 195.968C20.9528 195.669 20.4441 195.52 19.8001 195.52H18.9041V194.75C19.3801 194.694 19.7674 194.666 20.0661 194.666C20.3648 194.666 20.6261 194.68 20.8501 194.708C21.4288 194.279 21.7181 193.714 21.7181 193.014C21.7181 192.529 21.5454 192.155 21.2001 191.894C20.8548 191.633 20.4021 191.502 19.8421 191.502C19.2914 191.502 18.7408 191.595 18.1901 191.782L17.9801 191.012C18.6801 190.741 19.4081 190.606 20.1641 190.606C20.9201 190.606 21.5454 190.821 22.0401 191.25C22.5441 191.67 22.7961 192.258 22.7961 193.014C22.7961 193.77 22.4461 194.428 21.7461 194.988C22.5581 195.399 22.9641 196.169 22.9641 197.298C22.9641 198.157 22.6794 198.852 22.1101 199.384C21.5501 199.907 20.8408 200.168 19.9821 200.168C19.5061 200.168 19.0301 200.089 18.5541 199.93C18.0874 199.762 17.7048 199.524 17.4061 199.216L17.6301 198.488ZM30.5214 198.516C30.2787 199.02 29.938 199.421 29.4994 199.72C29.07 200.019 28.5567 200.168 27.9594 200.168C27.362 200.168 26.8487 200.047 26.4194 199.804C25.9994 199.561 25.6774 199.216 25.4534 198.768C25.052 197.956 24.8514 196.855 24.8514 195.464C24.8514 194.12 25.0754 193 25.5234 192.104C25.766 191.628 26.1067 191.259 26.5454 190.998C26.9934 190.737 27.516 190.606 28.1134 190.606C28.72 190.606 29.2287 190.723 29.6394 190.956C30.0594 191.18 30.3814 191.507 30.6054 191.936C31.0254 192.739 31.2354 193.793 31.2354 195.1C31.2354 196.407 30.9974 197.545 30.5214 198.516ZM26.9094 198.978C27.1987 199.193 27.5534 199.3 27.9734 199.3C28.3934 199.3 28.7527 199.169 29.0514 198.908C29.3594 198.637 29.588 198.283 29.7374 197.844C30.0174 197.023 30.1574 196.108 30.1574 195.1C30.1574 194.101 30.0454 193.28 29.8214 192.636C29.5507 191.861 28.986 191.474 28.1274 191.474C27.698 191.474 27.3294 191.595 27.0214 191.838C26.7134 192.071 26.4847 192.393 26.3354 192.804C26.0647 193.551 25.9294 194.437 25.9294 195.464C25.9294 197.321 26.256 198.493 26.9094 198.978ZM38.2186 198.516C37.976 199.02 37.6353 199.421 37.1966 199.72C36.7673 200.019 36.254 200.168 35.6566 200.168C35.0593 200.168 34.546 200.047 34.1166 199.804C33.6966 199.561 33.3746 199.216 33.1506 198.768C32.7493 197.956 32.5486 196.855 32.5486 195.464C32.5486 194.12 32.7726 193 33.2206 192.104C33.4633 191.628 33.804 191.259 34.2426 190.998C34.6906 190.737 35.2133 190.606 35.8106 190.606C36.4173 190.606 36.926 190.723 37.3366 190.956C37.7566 191.18 38.0786 191.507 38.3026 191.936C38.7226 192.739 38.9326 193.793 38.9326 195.1C38.9326 196.407 38.6946 197.545 38.2186 198.516ZM34.6066 198.978C34.896 199.193 35.2506 199.3 35.6706 199.3C36.0906 199.3 36.45 199.169 36.7486 198.908C37.0566 198.637 37.2853 198.283 37.4346 197.844C37.7146 197.023 37.8546 196.108 37.8546 195.1C37.8546 194.101 37.7426 193.28 37.5186 192.636C37.248 191.861 36.6833 191.474 35.8246 191.474C35.3953 191.474 35.0266 191.595 34.7186 191.838C34.4106 192.071 34.182 192.393 34.0326 192.804C33.762 193.551 33.6266 194.437 33.6266 195.464C33.6266 197.321 33.9533 198.493 34.6066 198.978Z" fill="#FDE8E9"/>
<path d="M17.4201 164.27V163.892L19.6321 157.606L20.5841 157.774L18.6381 163.402H21.3541V160.42H22.3901V163.402H23.4541L23.3281 164.27H22.3901V167H21.3541V164.27H17.4201ZM30.5214 165.516C30.2787 166.02 29.938 166.421 29.4994 166.72C29.07 167.019 28.5567 167.168 27.9594 167.168C27.362 167.168 26.8487 167.047 26.4194 166.804C25.9994 166.561 25.6774 166.216 25.4534 165.768C25.052 164.956 24.8514 163.855 24.8514 162.464C24.8514 161.12 25.0754 160 25.5234 159.104C25.766 158.628 26.1067 158.259 26.5454 157.998C26.9934 157.737 27.516 157.606 28.1134 157.606C28.72 157.606 29.2287 157.723 29.6394 157.956C30.0594 158.18 30.3814 158.507 30.6054 158.936C31.0254 159.739 31.2354 160.793 31.2354 162.1C31.2354 163.407 30.9974 164.545 30.5214 165.516ZM26.9094 165.978C27.1987 166.193 27.5534 166.3 27.9734 166.3C28.3934 166.3 28.7527 166.169 29.0514 165.908C29.3594 165.637 29.588 165.283 29.7374 164.844C30.0174 164.023 30.1574 163.108 30.1574 162.1C30.1574 161.101 30.0454 160.28 29.8214 159.636C29.5507 158.861 28.986 158.474 28.1274 158.474C27.698 158.474 27.3294 158.595 27.0214 158.838C26.7134 159.071 26.4847 159.393 26.3354 159.804C26.0647 160.551 25.9294 161.437 25.9294 162.464C25.9294 164.321 26.256 165.493 26.9094 165.978ZM38.2186 165.516C37.976 166.02 37.6353 166.421 37.1966 166.72C36.7673 167.019 36.254 167.168 35.6566 167.168C35.0593 167.168 34.546 167.047 34.1166 166.804C33.6966 166.561 33.3746 166.216 33.1506 165.768C32.7493 164.956 32.5486 163.855 32.5486 162.464C32.5486 161.12 32.7726 160 33.2206 159.104C33.4633 158.628 33.804 158.259 34.2426 157.998C34.6906 157.737 35.2133 157.606 35.8106 157.606C36.4173 157.606 36.926 157.723 37.3366 157.956C37.7566 158.18 38.0786 158.507 38.3026 158.936C38.7226 159.739 38.9326 160.793 38.9326 162.1C38.9326 163.407 38.6946 164.545 38.2186 165.516ZM34.6066 165.978C34.896 166.193 35.2506 166.3 35.6706 166.3C36.0906 166.3 36.45 166.169 36.7486 165.908C37.0566 165.637 37.2853 165.283 37.4346 164.844C37.7146 164.023 37.8546 163.108 37.8546 162.1C37.8546 161.101 37.7426 160.28 37.5186 159.636C37.248 158.861 36.6833 158.474 35.8246 158.474C35.3953 158.474 35.0266 158.595 34.7186 158.838C34.4106 159.071 34.182 159.393 34.0326 159.804C33.762 160.551 33.6266 161.437 33.6266 162.464C33.6266 164.321 33.9533 165.493 34.6066 165.978Z" fill="#FDE8E9"/>
<path d="M17.7701 132.488C18.4234 133.029 19.1328 133.3 19.8981 133.3C21.4101 133.3 22.1661 132.577 22.1661 131.13C22.1661 130.486 21.9794 129.996 21.6061 129.66C21.2421 129.324 20.7661 129.156 20.1781 129.156C19.5994 129.156 18.9228 129.207 18.1481 129.31L18.4561 124.774H22.7541L22.6281 125.642H19.3661L19.1841 128.372C19.6601 128.316 20.0988 128.288 20.5001 128.288C21.3588 128.288 22.0308 128.545 22.5161 129.058C23.0014 129.562 23.2441 130.267 23.2441 131.172C23.2441 132.068 22.9594 132.791 22.3901 133.342C21.8208 133.893 21.0834 134.168 20.1781 134.168C19.0394 134.168 18.1621 133.846 17.5461 133.202L17.7701 132.488ZM30.5214 132.516C30.2787 133.02 29.938 133.421 29.4994 133.72C29.07 134.019 28.5567 134.168 27.9594 134.168C27.362 134.168 26.8487 134.047 26.4194 133.804C25.9994 133.561 25.6774 133.216 25.4534 132.768C25.052 131.956 24.8514 130.855 24.8514 129.464C24.8514 128.12 25.0754 127 25.5234 126.104C25.766 125.628 26.1067 125.259 26.5454 124.998C26.9934 124.737 27.516 124.606 28.1134 124.606C28.72 124.606 29.2287 124.723 29.6394 124.956C30.0594 125.18 30.3814 125.507 30.6054 125.936C31.0254 126.739 31.2354 127.793 31.2354 129.1C31.2354 130.407 30.9974 131.545 30.5214 132.516ZM26.9094 132.978C27.1987 133.193 27.5534 133.3 27.9734 133.3C28.3934 133.3 28.7527 133.169 29.0514 132.908C29.3594 132.637 29.588 132.283 29.7374 131.844C30.0174 131.023 30.1574 130.108 30.1574 129.1C30.1574 128.101 30.0454 127.28 29.8214 126.636C29.5507 125.861 28.986 125.474 28.1274 125.474C27.698 125.474 27.3294 125.595 27.0214 125.838C26.7134 126.071 26.4847 126.393 26.3354 126.804C26.0647 127.551 25.9294 128.437 25.9294 129.464C25.9294 131.321 26.256 132.493 26.9094 132.978ZM38.2186 132.516C37.976 133.02 37.6353 133.421 37.1966 133.72C36.7673 134.019 36.254 134.168 35.6566 134.168C35.0593 134.168 34.546 134.047 34.1166 133.804C33.6966 133.561 33.3746 133.216 33.1506 132.768C32.7493 131.956 32.5486 130.855 32.5486 129.464C32.5486 128.12 32.7726 127 33.2206 126.104C33.4633 125.628 33.804 125.259 34.2426 124.998C34.6906 124.737 35.2133 124.606 35.8106 124.606C36.4173 124.606 36.926 124.723 37.3366 124.956C37.7566 125.18 38.0786 125.507 38.3026 125.936C38.7226 126.739 38.9326 127.793 38.9326 129.1C38.9326 130.407 38.6946 131.545 38.2186 132.516ZM34.6066 132.978C34.896 133.193 35.2506 133.3 35.6706 133.3C36.0906 133.3 36.45 133.169 36.7486 132.908C37.0566 132.637 37.2853 132.283 37.4346 131.844C37.7146 131.023 37.8546 130.108 37.8546 129.1C37.8546 128.101 37.7426 127.28 37.5186 126.636C37.248 125.861 36.6833 125.474 35.8246 125.474C35.3953 125.474 35.0266 125.595 34.7186 125.838C34.4106 126.071 34.182 126.393 34.0326 126.804C33.762 127.551 33.6266 128.437 33.6266 129.464C33.6266 131.321 33.9533 132.493 34.6066 132.978Z" fill="#FDE8E9"/>
<path d="M21.3681 92.474C20.5001 92.474 19.8328 92.7493 19.3661 93.3C18.9088 93.8413 18.6381 94.5973 18.5541 95.568C19.2728 95.3813 19.9261 95.288 20.5141 95.288C21.4381 95.288 22.1474 95.5353 22.6421 96.03C23.1461 96.5247 23.3981 97.22 23.3981 98.116C23.3981 99.012 23.1274 99.7447 22.5861 100.314C22.0448 100.883 21.3448 101.168 20.4861 101.168C19.5248 101.168 18.8061 100.86 18.3301 100.244C17.8914 99.6933 17.6208 98.9187 17.5181 97.92C17.4714 97.4907 17.4481 96.9167 17.4481 96.198C17.4481 95.4793 17.5788 94.7653 17.8401 94.056C18.1108 93.3373 18.5354 92.7493 19.1141 92.292C19.7021 91.8347 20.4114 91.606 21.2421 91.606C21.8394 91.606 22.3901 91.69 22.8941 91.858L22.6841 92.614C22.2454 92.5207 21.8068 92.474 21.3681 92.474ZM20.4861 100.3C21.0834 100.3 21.5408 100.104 21.8581 99.712C22.1754 99.32 22.3341 98.802 22.3341 98.158C22.3341 96.8233 21.6808 96.156 20.3741 96.156C19.7861 96.156 19.1701 96.2213 18.5261 96.352C18.5261 97.8453 18.6848 98.8813 19.0021 99.46C19.1328 99.6933 19.3241 99.894 19.5761 100.062C19.8281 100.221 20.1314 100.3 20.4861 100.3ZM30.5214 99.516C30.2787 100.02 29.938 100.421 29.4994 100.72C29.07 101.019 28.5567 101.168 27.9594 101.168C27.362 101.168 26.8487 101.047 26.4194 100.804C25.9994 100.561 25.6774 100.216 25.4534 99.768C25.052 98.956 24.8514 97.8547 24.8514 96.464C24.8514 95.12 25.0754 94 25.5234 93.104C25.766 92.628 26.1067 92.2593 26.5454 91.998C26.9934 91.7367 27.516 91.606 28.1134 91.606C28.72 91.606 29.2287 91.7227 29.6394 91.956C30.0594 92.18 30.3814 92.5067 30.6054 92.936C31.0254 93.7387 31.2354 94.7933 31.2354 96.1C31.2354 97.4067 30.9974 98.5453 30.5214 99.516ZM26.9094 99.978C27.1987 100.193 27.5534 100.3 27.9734 100.3C28.3934 100.3 28.7527 100.169 29.0514 99.908C29.3594 99.6373 29.588 99.2827 29.7374 98.844C30.0174 98.0227 30.1574 97.108 30.1574 96.1C30.1574 95.1013 30.0454 94.28 29.8214 93.636C29.5507 92.8613 28.986 92.474 28.1274 92.474C27.698 92.474 27.3294 92.5953 27.0214 92.838C26.7134 93.0713 26.4847 93.3933 26.3354 93.804C26.0647 94.5507 25.9294 95.4373 25.9294 96.464C25.9294 98.3213 26.256 99.4927 26.9094 99.978ZM38.2186 99.516C37.976 100.02 37.6353 100.421 37.1966 100.72C36.7673 101.019 36.254 101.168 35.6566 101.168C35.0593 101.168 34.546 101.047 34.1166 100.804C33.6966 100.561 33.3746 100.216 33.1506 99.768C32.7493 98.956 32.5486 97.8547 32.5486 96.464C32.5486 95.12 32.7726 94 33.2206 93.104C33.4633 92.628 33.804 92.2593 34.2426 91.998C34.6906 91.7367 35.2133 91.606 35.8106 91.606C36.4173 91.606 36.926 91.7227 37.3366 91.956C37.7566 92.18 38.0786 92.5067 38.3026 92.936C38.7226 93.7387 38.9326 94.7933 38.9326 96.1C38.9326 97.4067 38.6946 98.5453 38.2186 99.516ZM34.6066 99.978C34.896 100.193 35.2506 100.3 35.6706 100.3C36.0906 100.3 36.45 100.169 36.7486 99.908C37.0566 99.6373 37.2853 99.2827 37.4346 98.844C37.7146 98.0227 37.8546 97.108 37.8546 96.1C37.8546 95.1013 37.7426 94.28 37.5186 93.636C37.248 92.8613 36.6833 92.474 35.8246 92.474C35.3953 92.474 35.0266 92.5953 34.7186 92.838C34.4106 93.0713 34.182 93.3933 34.0326 93.804C33.762 94.5507 33.6266 95.4373 33.6266 96.464C33.6266 98.3213 33.9533 99.4927 34.6066 99.978Z" fill="#FDE8E9"/>
<path d="M58.834 9C58.882 9.864 58.906 10.576 58.906 11.136L58.858 14.28H64.378V15.84H58.858V24H57.058V7.44H65.05V9H58.834ZM73.6583 15.192C73.6583 14.728 73.5143 14.376 73.2263 14.136C72.9383 13.896 72.5543 13.776 72.0743 13.776C71.1143 13.776 70.3623 14.176 69.8183 14.976C69.2743 15.76 68.9623 16.712 68.8823 17.832C72.0663 17.832 73.6583 16.952 73.6583 15.192ZM71.5943 24.288C68.5863 24.288 67.0823 22.368 67.0823 18.528C67.0823 16.768 67.5223 15.312 68.4023 14.16C69.2983 13.008 70.5543 12.432 72.1703 12.432C73.1623 12.432 73.9463 12.672 74.5223 13.152C75.1143 13.616 75.4103 14.264 75.4103 15.096C75.4103 15.912 75.2103 16.584 74.8103 17.112C74.4263 17.624 73.8983 18.016 73.2263 18.288C71.9623 18.8 70.4983 19.056 68.8343 19.056C68.8343 21.6 69.8503 22.872 71.8823 22.872C72.9063 22.872 73.8743 22.592 74.7863 22.032L75.0503 22.968C74.6503 23.368 74.1223 23.688 73.4663 23.928C72.8263 24.168 72.2023 24.288 71.5943 24.288ZM79.8891 20.184V22.656C80.3531 22.896 81.0491 23.016 81.9771 23.016C84.3451 23.016 85.5291 21.144 85.5291 17.4C85.5291 15 84.7771 13.8 83.2731 13.8C82.4251 13.8 81.7291 14.16 81.1851 14.88C80.6571 15.6 80.3051 16.408 80.1291 17.304C79.9691 18.184 79.8891 19.144 79.8891 20.184ZM79.9371 12.96C79.9371 13.808 79.8731 14.52 79.7451 15.096H79.8891C80.2411 14.184 80.7051 13.512 81.2811 13.08C81.8571 12.648 82.6171 12.432 83.5611 12.432C84.9531 12.432 85.9291 12.888 86.4891 13.8C87.0491 14.696 87.3291 16.048 87.3291 17.856C87.3291 19.664 86.8811 21.192 85.9851 22.44C85.1051 23.672 83.7691 24.288 81.9771 24.288C81.3531 24.288 80.7291 24.224 80.1051 24.096C79.4971 23.968 78.8891 23.784 78.2811 23.544V6.384L79.9371 6.12V12.96ZM95.6175 24C95.6815 23.68 95.7135 23.4 95.7135 23.16C95.7135 22.904 95.6655 22.64 95.5695 22.368L96.9615 22.2C97.3135 22.328 97.4895 22.584 97.4895 22.968C97.4895 23.336 97.3855 23.768 97.1775 24.264L96.1935 26.592L95.1615 26.232L95.6175 24ZM105.361 24V23.352C106.257 22.456 107.201 21.44 108.193 20.304C109.185 19.152 109.809 18.4 110.065 18.048C110.337 17.68 110.681 17.184 111.097 16.56C111.513 15.936 111.817 15.408 112.009 14.976C112.537 13.824 112.801 12.824 112.801 11.976C112.801 11.128 112.497 10.496 111.889 10.08C111.297 9.648 110.481 9.432 109.441 9.432C108.417 9.432 107.417 9.592 106.441 9.912L106.081 8.592C107.281 8.128 108.569 7.896 109.945 7.896C111.321 7.896 112.449 8.256 113.329 8.976C114.209 9.68 114.649 10.728 114.649 12.12C114.649 14.76 112.537 18.232 108.313 22.536L114.985 22.464L115.081 24H105.361ZM127.916 21.456C127.5 22.32 126.916 23.008 126.164 23.52C125.428 24.032 124.548 24.288 123.524 24.288C122.5 24.288 121.62 24.08 120.884 23.664C120.164 23.248 119.612 22.656 119.228 21.888C118.54 20.496 118.196 18.608 118.196 16.224C118.196 13.92 118.58 12 119.348 10.464C119.764 9.648 120.348 9.016 121.1 8.568C121.868 8.12 122.764 7.896 123.788 7.896C124.828 7.896 125.7 8.096 126.404 8.496C127.124 8.88 127.676 9.44 128.06 10.176C128.78 11.552 129.14 13.36 129.14 15.6C129.14 17.84 128.732 19.792 127.916 21.456ZM121.724 22.248C122.22 22.616 122.828 22.8 123.548 22.8C124.268 22.8 124.884 22.576 125.396 22.128C125.924 21.664 126.316 21.056 126.572 20.304C127.052 18.896 127.292 17.328 127.292 15.6C127.292 13.888 127.1 12.48 126.716 11.376C126.252 10.048 125.284 9.384 123.812 9.384C123.076 9.384 122.444 9.592 121.916 10.008C121.388 10.408 120.996 10.96 120.74 11.664C120.276 12.944 120.044 14.464 120.044 16.224C120.044 19.408 120.604 21.416 121.724 22.248ZM131.751 24V23.352C132.647 22.456 133.591 21.44 134.583 20.304C135.575 19.152 136.199 18.4 136.455 18.048C136.727 17.68 137.071 17.184 137.487 16.56C137.903 15.936 138.207 15.408 138.399 14.976C138.927 13.824 139.191 12.824 139.191 11.976C139.191 11.128 138.887 10.496 138.279 10.08C137.687 9.648 136.871 9.432 135.831 9.432C134.807 9.432 133.807 9.592 132.831 9.912L132.471 8.592C133.671 8.128 134.959 7.896 136.335 7.896C137.711 7.896 138.839 8.256 139.719 8.976C140.599 9.68 141.039 10.728 141.039 12.12C141.039 14.76 138.927 18.232 134.703 22.536L141.375 22.464L141.471 24H131.751ZM154.307 21.456C153.891 22.32 153.307 23.008 152.555 23.52C151.819 24.032 150.939 24.288 149.915 24.288C148.891 24.288 148.011 24.08 147.275 23.664C146.555 23.248 146.003 22.656 145.619 21.888C144.931 20.496 144.587 18.608 144.587 16.224C144.587 13.92 144.971 12 145.739 10.464C146.155 9.648 146.739 9.016 147.491 8.568C148.259 8.12 149.155 7.896 150.179 7.896C151.219 7.896 152.091 8.096 152.795 8.496C153.515 8.88 154.067 9.44 154.451 10.176C155.171 11.552 155.531 13.36 155.531 15.6C155.531 17.84 155.123 19.792 154.307 21.456ZM148.115 22.248C148.611 22.616 149.219 22.8 149.939 22.8C150.659 22.8 151.275 22.576 151.787 22.128C152.315 21.664 152.707 21.056 152.963 20.304C153.443 18.896 153.683 17.328 153.683 15.6C153.683 13.888 153.491 12.48 153.107 11.376C152.643 10.048 151.675 9.384 150.203 9.384C149.467 9.384 148.835 9.592 148.307 10.008C147.779 10.408 147.387 10.96 147.131 11.664C146.667 12.944 146.435 14.464 146.435 16.224C146.435 19.408 146.995 21.416 148.115 22.248Z" fill="#FDE8E9"/>
<path d="M183.784 310.25V319H182.664L182.706 310.25H180.228L180.27 309.34H186.29L186.178 310.25H183.784ZM187.651 313.386C187.651 312.938 187.595 312.607 187.483 312.392L188.281 312.252C188.439 312.289 188.537 312.383 188.575 312.532C188.621 312.681 188.645 312.835 188.645 312.994C188.645 313.106 188.626 313.75 188.589 314.926C188.551 316.093 188.533 316.741 188.533 316.872C188.533 317.003 188.537 317.152 188.547 317.32C188.565 317.479 188.612 317.647 188.687 317.824C188.817 318.188 189.135 318.37 189.639 318.37C190.012 318.37 190.329 318.239 190.591 317.978C190.861 317.707 191.057 317.353 191.179 316.914C191.412 316.121 191.529 315.253 191.529 314.31V312.42H192.467V316.242C192.467 317.073 192.527 317.647 192.649 317.964C192.77 318.272 193.041 318.426 193.461 318.426L193.489 319.056C193.339 319.093 193.153 319.112 192.929 319.112C192.462 319.112 192.135 318.977 191.949 318.706C191.771 318.426 191.683 318.104 191.683 317.74C191.683 317.637 191.687 317.53 191.697 317.418H191.613C191.463 317.987 191.188 318.421 190.787 318.72C190.395 319.019 189.877 319.168 189.233 319.168C188.598 319.168 188.155 318.972 187.903 318.58C187.651 318.188 187.525 317.651 187.525 316.97C187.525 316.886 187.543 316.284 187.581 315.164C187.627 314.044 187.651 313.451 187.651 313.386ZM198.475 313.862C198.475 313.591 198.391 313.386 198.223 313.246C198.055 313.106 197.831 313.036 197.551 313.036C196.991 313.036 196.553 313.269 196.235 313.736C195.918 314.193 195.736 314.749 195.689 315.402C197.547 315.402 198.475 314.889 198.475 313.862ZM197.271 319.168C195.517 319.168 194.639 318.048 194.639 315.808C194.639 314.781 194.896 313.932 195.409 313.26C195.932 312.588 196.665 312.252 197.607 312.252C198.186 312.252 198.643 312.392 198.979 312.672C199.325 312.943 199.497 313.321 199.497 313.806C199.497 314.282 199.381 314.674 199.147 314.982C198.923 315.281 198.615 315.509 198.223 315.668C197.486 315.967 196.632 316.116 195.661 316.116C195.661 317.6 196.254 318.342 197.439 318.342C198.037 318.342 198.601 318.179 199.133 317.852L199.287 318.398C199.054 318.631 198.746 318.818 198.363 318.958C197.99 319.098 197.626 319.168 197.271 319.168Z" fill="#FDE8E9"/>
<path d="M265.162 317.88C265.162 317.535 265.204 317.222 265.288 316.942L266.982 311.608L266.436 309.34H267.5L269.32 317.082L269.446 317.88H269.53C269.53 317.833 269.53 317.707 269.53 317.502C269.53 317.287 269.562 317.054 269.628 316.802L271.644 309.34H272.764L269.992 319L268.83 319.126L267.416 313.204H267.332C267.341 313.232 267.346 313.302 267.346 313.414C267.346 313.517 267.285 313.769 267.164 314.17L265.652 319L264.504 319.126L261.914 309.34H263.034L264.952 317.082L265.078 317.88H265.162ZM277.772 313.862C277.772 313.591 277.688 313.386 277.52 313.246C277.352 313.106 277.128 313.036 276.848 313.036C276.288 313.036 275.85 313.269 275.532 313.736C275.215 314.193 275.033 314.749 274.986 315.402C276.844 315.402 277.772 314.889 277.772 313.862ZM276.568 319.168C274.814 319.168 273.936 318.048 273.936 315.808C273.936 314.781 274.193 313.932 274.706 313.26C275.229 312.588 275.962 312.252 276.904 312.252C277.483 312.252 277.94 312.392 278.276 312.672C278.622 312.943 278.794 313.321 278.794 313.806C278.794 314.282 278.678 314.674 278.444 314.982C278.22 315.281 277.912 315.509 277.52 315.668C276.783 315.967 275.929 316.116 274.958 316.116C274.958 317.6 275.551 318.342 276.736 318.342C277.334 318.342 277.898 318.179 278.43 317.852L278.584 318.398C278.351 318.631 278.043 318.818 277.66 318.958C277.287 319.098 276.923 319.168 276.568 319.168ZM282.317 319.168C281.505 319.168 280.912 318.888 280.539 318.328C280.166 317.768 279.979 316.975 279.979 315.948C279.979 314.912 280.24 314.039 280.763 313.33C281.295 312.611 282.074 312.252 283.101 312.252C283.502 312.252 283.908 312.336 284.319 312.504V308.738L285.257 308.57V316.242C285.257 317.073 285.318 317.647 285.439 317.964C285.56 318.272 285.831 318.426 286.251 318.426L286.279 319.056C286.158 319.093 285.971 319.112 285.719 319.112C285.252 319.112 284.926 318.972 284.739 318.692C284.562 318.412 284.473 318.09 284.473 317.726C284.473 317.633 284.478 317.53 284.487 317.418H284.403C284.03 318.585 283.334 319.168 282.317 319.168ZM284.319 314.646V313.204C284.048 313.064 283.642 312.994 283.101 312.994C281.72 312.994 281.029 314.035 281.029 316.116C281.029 317.637 281.491 318.398 282.415 318.398C282.779 318.398 283.092 318.281 283.353 318.048C283.624 317.805 283.824 317.488 283.955 317.096C284.198 316.359 284.319 315.542 284.319 314.646Z" fill="#FDE8E9"/>
<path d="M354.998 310.25V319H353.878L353.92 310.25H351.442L351.484 309.34H357.504L357.392 310.25H354.998ZM359.858 312.56C359.858 313.055 359.821 313.47 359.746 313.806H359.83C360.213 312.77 360.927 312.252 361.972 312.252C362.71 312.252 363.218 312.439 363.498 312.812C363.778 313.176 363.918 313.727 363.918 314.464C363.918 314.492 363.909 314.968 363.89 315.892C363.881 316.816 363.876 317.404 363.876 317.656C363.876 317.908 363.904 318.095 363.96 318.216C364.026 318.337 364.226 318.398 364.562 318.398L364.59 319.028C364.46 319.084 364.268 319.112 364.016 319.112C363.568 319.112 363.26 319.009 363.092 318.804C362.934 318.599 362.854 318.272 362.854 317.824C362.854 317.805 362.864 317.301 362.882 316.312C362.901 315.323 362.91 314.809 362.91 314.772C362.91 314.231 362.84 313.811 362.7 313.512C362.56 313.204 362.252 313.05 361.776 313.05C361.3 313.05 360.904 313.26 360.586 313.68C360.278 314.1 360.073 314.571 359.97 315.094C359.877 315.607 359.83 316.167 359.83 316.774V319H358.864V308.738L359.858 308.57V312.56ZM366.493 313.386C366.493 312.938 366.437 312.607 366.325 312.392L367.123 312.252C367.282 312.289 367.38 312.383 367.417 312.532C367.464 312.681 367.487 312.835 367.487 312.994C367.487 313.106 367.469 313.75 367.431 314.926C367.394 316.093 367.375 316.741 367.375 316.872C367.375 317.003 367.38 317.152 367.389 317.32C367.408 317.479 367.455 317.647 367.529 317.824C367.66 318.188 367.977 318.37 368.481 318.37C368.855 318.37 369.172 318.239 369.433 317.978C369.704 317.707 369.9 317.353 370.021 316.914C370.255 316.121 370.371 315.253 370.371 314.31V312.42H371.309V316.242C371.309 317.073 371.37 317.647 371.491 317.964C371.613 318.272 371.883 318.426 372.303 318.426L372.331 319.056C372.182 319.093 371.995 319.112 371.771 319.112C371.305 319.112 370.978 318.977 370.791 318.706C370.614 318.426 370.525 318.104 370.525 317.74C370.525 317.637 370.53 317.53 370.539 317.418H370.455C370.306 317.987 370.031 318.421 369.629 318.72C369.237 319.019 368.719 319.168 368.075 319.168C367.441 319.168 366.997 318.972 366.745 318.58C366.493 318.188 366.367 317.651 366.367 316.97C366.367 316.886 366.386 316.284 366.423 315.164C366.47 314.044 366.493 313.451 366.493 313.386Z" fill="#FDE8E9"/>
<path d="M83.7678 132.714H72.4226V296.092H83.7678V132.714Z" fill="#3BAFDA"/>
<path d="M100.673 69.7293H89.3629V296.092H100.673V69.7293Z" fill="#48CFAD"/>
<path d="M117.607 154.209H106.255V296.091H117.607V154.209Z" fill="#FFCE54"/>
<path d="M134.494 107.439H123.155V296.091H134.494V107.439Z" fill="#FC6E51"/>
<path d="M168.494 249.649H157.172V296.091H168.494V249.649Z" fill="#3BAFDA"/>
<path d="M185.416 190.451H174.089V296.092H185.416V190.451Z" fill="#48CFAD"/>
<path d="M202.327 210.061H190.982V296.092H202.327V210.061Z" fill="#FFCE54"/>
<path d="M219.226 140.257H207.893V296.091H219.226V140.257Z" fill="#FC6E51"/>
<path d="M253.232 240.501H241.905V296.092H253.232V240.501Z" fill="#3BAFDA"/>
<path d="M270.137 250.464H258.821V296.092H270.137V250.464Z" fill="#48CFAD"/>
<path d="M287.054 166.406H275.708V296.092H287.054V166.406Z" fill="#FFCE54"/>
<path d="M303.941 205.947H292.637V296.092H303.941V205.947Z" fill="#FC6E51"/>
<path d="M337.976 88.0135H326.625V296.091H337.976V88.0135Z" fill="#3BAFDA"/>
<path d="M354.887 153.383H343.542V296.092H354.887V153.383Z" fill="#48CFAD"/>
<path d="M371.774 216.469H360.459V296.091H371.774V216.469Z" fill="#FFCE54"/>
<path d="M388.69 120.291H377.375V296.092H388.69V120.291Z" fill="#FC6E51"/>
<path d="M55 59V60.9497H59.6311V92.8585H55V94.8434H59.6311V126.746H55V128.69H59.6311V160.599H55V162.584H59.6311V194.487H55V196.43H59.6311V228.351H55V230.319H59.6311V262.233H55V264.189H59.6311V298H407V296.092H61.5834V59H55Z" fill="#FDE8E9"/>
<g clip-path="url(#clip0)">
<path d="M456.207 11.3414L445.107 0.271408C444.743 -0.0910752 444.154 -0.0904658 443.791 0.273283C443.428 0.636984 443.429 1.22615 443.793 1.58892L454.233 12L443.792 22.4111C443.429 22.7739 443.428 23.3627 443.791 23.7265C443.973 23.9088 444.211 24 444.45 24C444.687 24 444.925 23.9094 445.107 23.7284L456.207 12.6586C456.383 12.4844 456.481 12.2472 456.481 12C456.481 11.7529 456.382 11.516 456.207 11.3414Z" fill="#FDE8E9"/>
</g>
<g clip-path="url(#clip1)">
<path d="M5.79266 12.6586L16.8934 23.7286C17.2571 24.0911 17.8459 24.0905 18.209 23.7267C18.5718 23.363 18.5709 22.7738 18.2071 22.4111L7.76717 11.9999L18.2075 1.58886C18.5712 1.22605 18.5721 0.637256 18.2094 0.273507C18.0274 0.091164 17.7889 -8.58272e-06 17.5505 -8.58272e-06C17.3126 -8.58272e-06 17.0751 0.0905542 16.8934 0.271632L5.79266 11.3414C5.61749 11.5156 5.51919 11.7528 5.51919 11.9999C5.51919 12.2471 5.61777 12.484 5.79266 12.6586Z" fill="#FDE8E9"/>
</g>
<path d="M273.05 101H221.95C215.905 101.004 211.007 103.957 211 107.6V126.667C211.007 130.31 215.905 133.263 221.95 133.267H225.332L223.191 139.72C223.099 139.997 223.28 140.282 223.656 140.451C224.031 140.62 224.535 140.644 224.95 140.513L247.801 133.267H273.05C279.095 133.263 283.993 130.31 284 126.667V107.6C283.993 103.957 279.095 101.004 273.05 101ZM281.567 126.667C281.561 129.5 277.752 131.797 273.05 131.8H247.5C247.302 131.8 247.108 131.829 246.933 131.884L226.078 138.501L228.009 132.68C228.082 132.464 227.991 132.24 227.759 132.07C227.528 131.899 227.182 131.8 226.817 131.8H221.95C217.248 131.797 213.439 129.5 213.433 126.667V107.6C213.439 104.766 217.248 102.47 221.95 102.467H273.05C277.752 102.47 281.561 104.766 281.567 107.6V126.667Z" fill="#FDE8E9"/>
<path d="M222.891 113.944C222.891 113.347 223.129 112.838 223.605 112.418C224.09 111.989 224.687 111.751 225.397 111.704L225.453 110.57C225.686 110.57 225.873 110.593 226.013 110.64L225.957 111.704C226.582 111.732 227.165 111.853 227.707 112.068L227.497 112.796C226.946 112.628 226.423 112.539 225.929 112.53L225.789 115.806C226.106 115.946 226.335 116.053 226.475 116.128C226.624 116.193 226.829 116.315 227.091 116.492C227.352 116.66 227.543 116.823 227.665 116.982C227.991 117.411 228.155 117.948 228.155 118.592C228.155 119.236 227.912 119.787 227.427 120.244C226.951 120.692 226.325 120.958 225.551 121.042L225.509 122.162H224.949L224.991 121.07C224.095 121.051 223.283 120.762 222.555 120.202L222.779 119.502C223.497 119.978 224.249 120.216 225.033 120.216L225.187 116.66C224.216 116.221 223.605 115.829 223.353 115.484C223.045 115.045 222.891 114.532 222.891 113.944ZM225.593 120.174C226.05 120.09 226.414 119.908 226.685 119.628C226.965 119.339 227.105 118.989 227.105 118.578C227.105 118.158 226.988 117.827 226.755 117.584C226.521 117.341 226.181 117.113 225.733 116.898L225.593 120.174ZM223.969 113.944C223.969 114.607 224.389 115.139 225.229 115.54L225.369 112.572C224.958 112.647 224.622 112.805 224.361 113.048C224.099 113.291 223.969 113.589 223.969 113.944Z" fill="#06AC70"/>
<path d="M230.259 118.27V117.892L232.471 111.606L233.423 111.774L231.477 117.402H234.193V114.42H235.229V117.402H236.293L236.167 118.27H235.229V121H234.193V118.27H230.259ZM238.362 114.014C238.362 113.323 238.6 112.749 239.076 112.292C239.552 111.835 240.136 111.606 240.826 111.606C241.526 111.606 242.119 111.816 242.604 112.236C243.09 112.647 243.332 113.193 243.332 113.874C243.332 114.798 242.894 115.549 242.016 116.128C242.586 116.38 243.029 116.683 243.346 117.038C243.664 117.393 243.822 117.887 243.822 118.522C243.822 119.353 243.538 120.001 242.968 120.468C242.408 120.935 241.694 121.168 240.826 121.168C239.968 121.168 239.258 120.944 238.698 120.496C238.148 120.039 237.872 119.404 237.872 118.592C237.872 118.079 238.026 117.598 238.334 117.15C238.642 116.693 239.044 116.329 239.538 116.058C238.754 115.582 238.362 114.901 238.362 114.014ZM238.852 118.578C238.852 119.11 239.039 119.535 239.412 119.852C239.795 120.16 240.266 120.314 240.826 120.314C241.396 120.314 241.872 120.16 242.254 119.852C242.646 119.544 242.842 119.119 242.842 118.578C242.842 118.214 242.763 117.948 242.604 117.78C242.455 117.603 242.334 117.477 242.24 117.402C242.156 117.318 242.012 117.225 241.806 117.122C241.601 117.019 241.447 116.945 241.344 116.898C240.943 116.711 240.57 116.557 240.224 116.436C239.31 117.015 238.852 117.729 238.852 118.578ZM242.338 113.958C242.338 113.491 242.198 113.127 241.918 112.866C241.648 112.595 241.288 112.46 240.84 112.46C240.392 112.46 240.024 112.6 239.734 112.88C239.454 113.151 239.314 113.51 239.314 113.958C239.314 114.397 239.464 114.742 239.762 114.994C240.07 115.237 240.574 115.507 241.274 115.806C241.984 115.274 242.338 114.658 242.338 113.958ZM247.474 120.3C248.342 120.3 249.004 120.029 249.462 119.488C249.928 118.937 250.204 118.177 250.288 117.206C249.569 117.393 248.916 117.486 248.328 117.486C247.404 117.486 246.69 117.239 246.186 116.744C245.691 116.249 245.444 115.554 245.444 114.658C245.444 113.762 245.714 113.029 246.256 112.46C246.797 111.891 247.497 111.606 248.356 111.606C249.317 111.606 250.036 111.914 250.512 112.53C250.95 113.081 251.221 113.851 251.324 114.84C251.37 115.279 251.394 115.857 251.394 116.576C251.394 117.295 251.258 118.013 250.988 118.732C250.726 119.441 250.302 120.025 249.714 120.482C249.135 120.939 248.43 121.168 247.6 121.168C247.002 121.168 246.452 121.084 245.948 120.916L246.158 120.16C246.606 120.253 247.044 120.3 247.474 120.3ZM248.356 112.474C247.758 112.474 247.301 112.67 246.984 113.062C246.666 113.454 246.508 113.972 246.508 114.616C246.508 115.951 247.161 116.618 248.468 116.618C249.056 116.618 249.672 116.553 250.316 116.422C250.316 114.929 250.157 113.897 249.84 113.328C249.709 113.085 249.518 112.885 249.266 112.726C249.014 112.558 248.71 112.474 248.356 112.474ZM253.225 120.552C253.225 120.113 253.439 119.894 253.869 119.894C254.261 119.894 254.457 120.109 254.457 120.538C254.457 120.958 254.251 121.168 253.841 121.168C253.43 121.168 253.225 120.963 253.225 120.552ZM256.207 121V120.622C256.73 120.099 257.28 119.507 257.859 118.844C258.438 118.172 258.802 117.733 258.951 117.528C259.11 117.313 259.31 117.024 259.553 116.66C259.796 116.296 259.973 115.988 260.085 115.736C260.393 115.064 260.547 114.481 260.547 113.986C260.547 113.491 260.37 113.123 260.015 112.88C259.67 112.628 259.194 112.502 258.587 112.502C257.99 112.502 257.406 112.595 256.837 112.782L256.627 112.012C257.327 111.741 258.078 111.606 258.881 111.606C259.684 111.606 260.342 111.816 260.855 112.236C261.368 112.647 261.625 113.258 261.625 114.07C261.625 115.61 260.393 117.635 257.929 120.146L261.821 120.104L261.877 121H256.207ZM264.31 119.488C264.963 120.029 265.673 120.3 266.438 120.3C267.95 120.3 268.706 119.577 268.706 118.13C268.706 117.486 268.519 116.996 268.146 116.66C267.782 116.324 267.306 116.156 266.718 116.156C266.139 116.156 265.463 116.207 264.688 116.31L264.996 111.774H269.294L269.168 112.642H265.906L265.724 115.372C266.2 115.316 266.639 115.288 267.04 115.288C267.899 115.288 268.571 115.545 269.056 116.058C269.541 116.562 269.784 117.267 269.784 118.172C269.784 119.068 269.499 119.791 268.93 120.342C268.361 120.893 267.623 121.168 266.718 121.168C265.579 121.168 264.702 120.846 264.086 120.202L264.31 119.488Z" fill="#FDE8E9"/>
<line x1="6" y1="35.5" x2="456" y2="35.5" stroke="#FDE8E9"/>
<defs>
<clipPath id="clip0">
<rect width="24" height="24" fill="white" transform="translate(438)"/>
</clipPath>
<clipPath id="clip1">
<rect width="24" height="24" fill="white" transform="translate(24 24) rotate(-180)"/>
</clipPath>
</defs>
</svg>
