<svg width="35" height="33" viewBox="0 0 35 33" fill="none" xmlns="http://www.w3.org/2000/svg">
<g clip-path="url(#clip0)">
<path d="M21.6101 7.26163H13.0197C10.2239 7.26163 7.94943 9.53593 7.94943 12.3315V20.9213C7.94943 23.7167 10.2239 25.991 13.0197 25.991H21.6102C24.4059 25.991 26.6804 23.7167 26.6804 20.9213V12.3315C26.6804 9.53593 24.4059 7.26163 21.6101 7.26163V7.26163ZM25.5823 20.9213C25.5823 23.1113 23.8004 24.8931 21.6101 24.8931H13.0197C10.8294 24.8931 9.04752 23.1113 9.04752 20.9213V12.3315C9.04752 10.1414 10.8294 8.35963 13.0197 8.35963H21.6102C23.8004 8.35963 25.5823 10.1414 25.5823 12.3315V20.9213Z" fill="#FDE8E9"/>
<path d="M17.3149 11.5052C14.4908 11.5052 12.1933 13.8025 12.1933 16.6263C12.1933 19.4502 14.4908 21.7475 17.3149 21.7475C20.139 21.7475 22.4365 19.4502 22.4365 16.6263C22.4365 13.8025 20.139 11.5052 17.3149 11.5052V11.5052ZM17.3149 20.6495C15.0964 20.6495 13.2914 18.8448 13.2914 16.6263C13.2914 14.4081 15.0964 12.6032 17.3149 12.6032C19.5335 12.6032 21.3384 14.4081 21.3384 16.6263C21.3384 18.8448 19.5335 20.6495 17.3149 20.6495V20.6495Z" fill="#FDE8E9"/>
<path d="M22.559 9.6864C21.7244 9.6864 21.0456 10.3653 21.0456 11.1997C21.0456 12.0342 21.7244 12.713 22.559 12.713C23.3936 12.713 24.0725 12.0342 24.0725 11.1997C24.0725 10.3651 23.3936 9.6864 22.559 9.6864ZM22.559 11.6149C22.3301 11.6149 22.1437 11.4286 22.1437 11.1997C22.1437 10.9706 22.3301 10.7844 22.559 10.7844C22.7881 10.7844 22.9744 10.9706 22.9744 11.1997C22.9744 11.4286 22.7881 11.6149 22.559 11.6149Z" fill="#FDE8E9"/>
</g>
<path d="M34.0581 16.5C34.0581 24.9684 26.7032 31.89 17.5581 31.89C8.4131 31.89 1.05814 24.9684 1.05814 16.5C1.05814 8.03159 8.4131 1.10999 17.5581 1.10999C26.7032 1.10999 34.0581 8.03159 34.0581 16.5Z" stroke="#FDE8E9"/>
<defs>
<clipPath id="clip0">
<rect width="18.731" height="18.7295" fill="white" transform="translate(7.94943 7.26163)"/>
</clipPath>
</defs>
</svg>
