<svg width="24" height="11" viewBox="0 0 24 11" fill="none" xmlns="http://www.w3.org/2000/svg">
<path d="M18.4937 0.418724C18.1056 0.418724 17.8469 0.677449 17.8469 1.06557V10.1218C17.8469 10.51 18.1056 10.7687 18.4937 10.7687C18.8819 10.7687 19.1406 10.51 19.1406 10.1218V1.06565C19.1406 0.677524 18.8819 0.418724 18.4937 0.418724Z" fill="#FDE8E9"/>
<path d="M22.375 0.418724C21.9869 0.418724 21.7282 0.677449 21.7282 1.06557V10.1218C21.7282 10.51 21.9869 10.7687 22.375 10.7687C22.7631 10.7687 23.0218 10.51 23.0218 10.1218V1.06565C23.0218 0.677524 22.7631 0.418724 22.375 0.418724Z" fill="#FDE8E9"/>
<path d="M15.5828 0.483461C15.2593 0.354061 14.8712 0.418798 14.6772 0.742185L9.50214 9.79846C9.37274 10.1219 9.43748 10.5101 9.76086 10.7041C9.89026 10.7688 9.95492 10.7688 10.0843 10.7688C10.2784 10.7688 10.5371 10.6394 10.6665 10.4453L15.8415 1.38904C15.9709 1.06565 15.9063 0.677524 15.5828 0.483461Z" fill="#FDE8E9"/>
<path d="M9.11408 5.01156L1.35158 0.483464C1.15752 0.354064 0.898796 0.354064 0.704733 0.483464C0.510671 0.612864 0.38127 0.806926 0.38127 1.06565V10.1219C0.38127 10.3807 0.510671 10.5747 0.704733 10.7041C0.834134 10.7688 0.898796 10.7688 1.0282 10.7688C1.1576 10.7688 1.22226 10.7688 1.35166 10.7041L9.11416 6.17601C9.30822 6.04661 9.43762 5.85255 9.43762 5.59383C9.43762 5.3351 9.30814 5.14096 9.11408 5.01156ZM1.67497 8.95748V2.16529L7.49684 5.52901L1.67497 8.95748Z" fill="#FDE8E9"/>
</svg>
