<svg width="368" height="156" viewBox="0 0 368 156" fill="none" xmlns="http://www.w3.org/2000/svg">
<path d="M0.718156 46L3.85416 36.34L4.90416 36.214L8.05416 46H6.97616L6.12216 43.27H2.63616L1.79616 46H0.718156ZM4.44216 37.348H4.35816C4.34882 37.6 4.30216 37.866 4.21816 38.146L2.91616 42.36H5.84216L4.58216 38.146C4.52616 37.9407 4.48416 37.7587 4.45616 37.6C4.43749 37.432 4.43282 37.348 4.44216 37.348ZM9.64086 40.386C9.64086 39.938 9.58486 39.6067 9.47286 39.392L10.2709 39.252C10.4295 39.2893 10.5275 39.3827 10.5649 39.532C10.6115 39.6813 10.6349 39.8353 10.6349 39.994C10.6349 40.106 10.6162 40.75 10.5789 41.926C10.5415 43.0927 10.5229 43.7413 10.5229 43.872C10.5229 44.0027 10.5275 44.152 10.5369 44.32C10.5555 44.4787 10.6022 44.6467 10.6769 44.824C10.8075 45.188 11.1249 45.37 11.6289 45.37C12.0022 45.37 12.3195 45.2393 12.5809 44.978C12.8515 44.7073 13.0475 44.3527 13.1689 43.914C13.4022 43.1207 13.5189 42.2527 13.5189 41.31V39.42H14.4569V43.242C14.4569 44.0727 14.5175 44.6467 14.6389 44.964C14.7602 45.272 15.0309 45.426 15.4509 45.426L15.4789 46.056C15.3295 46.0933 15.1429 46.112 14.9189 46.112C14.4522 46.112 14.1255 45.9767 13.9389 45.706C13.7615 45.426 13.6729 45.104 13.6729 44.74C13.6729 44.6373 13.6775 44.53 13.6869 44.418H13.6029C13.4535 44.9873 13.1782 45.4213 12.7769 45.72C12.3849 46.0187 11.8669 46.168 11.2229 46.168C10.5882 46.168 10.1449 45.972 9.89286 45.58C9.64086 45.188 9.51486 44.6513 9.51486 43.97C9.51486 43.886 9.53353 43.284 9.57086 42.164C9.61753 41.044 9.64086 40.4513 9.64086 40.386ZM20.3117 45.3L20.4517 45.916C20.1064 46.084 19.691 46.168 19.2057 46.168C18.515 46.168 18.0577 45.9813 17.8337 45.608C17.6097 45.2347 17.4977 44.642 17.4977 43.83V40.162H16.3777V39.56L17.4977 39.42V37.964L18.5057 37.796V39.42H20.3117V40.162H18.5057V43.522C18.5057 44.39 18.5804 44.9173 18.7297 45.104C18.9164 45.3187 19.1684 45.426 19.4857 45.426C19.803 45.426 20.0784 45.384 20.3117 45.3ZM24.3913 45.426C24.8579 45.426 25.2406 45.2813 25.5393 44.992C25.8379 44.7027 26.0386 44.3527 26.1413 43.942C26.2533 43.5313 26.3093 43.06 26.3093 42.528C26.3093 40.8573 25.7166 40.022 24.5313 40.022C24.0926 40.022 23.7286 40.162 23.4393 40.442C22.9166 40.9367 22.6553 41.7253 22.6553 42.808C22.6553 44.5533 23.2339 45.426 24.3913 45.426ZM27.3593 42.542C27.3593 43.5687 27.0979 44.432 26.5753 45.132C26.0619 45.8227 25.3153 46.168 24.3353 46.168C23.3646 46.168 22.6739 45.888 22.2633 45.328C21.8526 44.7587 21.6473 43.928 21.6473 42.836C21.6473 41.744 21.8853 40.876 22.3613 40.232C22.8373 39.5787 23.5559 39.252 24.5173 39.252C25.4786 39.252 26.1926 39.546 26.6593 40.134C27.1259 40.7127 27.3593 41.5153 27.3593 42.542ZM31.8327 37.25V46H30.7127L30.7547 37.25H28.2767L28.3187 36.34H34.3387L34.2267 37.25H31.8327ZM35.6995 40.386C35.6995 39.938 35.6435 39.6067 35.5315 39.392L36.3295 39.252C36.4881 39.2893 36.5861 39.3827 36.6235 39.532C36.6701 39.6813 36.6935 39.8353 36.6935 39.994C36.6935 40.106 36.6748 40.75 36.6375 41.926C36.6001 43.0927 36.5815 43.7413 36.5815 43.872C36.5815 44.0027 36.5861 44.152 36.5955 44.32C36.6141 44.4787 36.6608 44.6467 36.7355 44.824C36.8661 45.188 37.1835 45.37 37.6875 45.37C38.0608 45.37 38.3781 45.2393 38.6395 44.978C38.9101 44.7073 39.1061 44.3527 39.2275 43.914C39.4608 43.1207 39.5775 42.2527 39.5775 41.31V39.42H40.5155V43.242C40.5155 44.0727 40.5761 44.6467 40.6975 44.964C40.8188 45.272 41.0895 45.426 41.5095 45.426L41.5375 46.056C41.3881 46.0933 41.2015 46.112 40.9775 46.112C40.5108 46.112 40.1841 45.9767 39.9975 45.706C39.8201 45.426 39.7315 45.104 39.7315 44.74C39.7315 44.6373 39.7361 44.53 39.7455 44.418H39.6615C39.5121 44.9873 39.2368 45.4213 38.8355 45.72C38.4435 46.0187 37.9255 46.168 37.2815 46.168C36.6468 46.168 36.2035 45.972 35.9515 45.58C35.6995 45.188 35.5735 44.6513 35.5735 43.97C35.5735 43.886 35.5921 43.284 35.6295 42.164C35.6761 41.044 35.6995 40.4513 35.6995 40.386ZM44.1583 39.7C44.1583 40.1947 44.121 40.61 44.0463 40.946H44.1303C44.261 40.4233 44.513 40.0127 44.8863 39.714C45.269 39.406 45.731 39.252 46.2723 39.252C47.0096 39.252 47.5183 39.4387 47.7983 39.812C48.0783 40.176 48.2183 40.7267 48.2183 41.464C48.2183 41.492 48.209 41.968 48.1903 42.892C48.181 43.816 48.1763 44.404 48.1763 44.656C48.1763 44.908 48.2043 45.0947 48.2603 45.216C48.3256 45.3373 48.5263 45.398 48.8623 45.398L48.8903 46.028C48.7596 46.084 48.5683 46.112 48.3163 46.112C47.8683 46.112 47.5603 46.0093 47.3923 45.804C47.2336 45.5987 47.1543 45.272 47.1543 44.824C47.1543 44.8053 47.1636 44.3013 47.1823 43.312C47.201 42.3227 47.2103 41.8093 47.2103 41.772C47.2103 41.2307 47.1403 40.8107 47.0003 40.512C46.8603 40.204 46.5803 40.05 46.1603 40.05C45.7496 40.05 45.4043 40.1807 45.1243 40.442C44.8536 40.7033 44.6483 41.044 44.5083 41.464C44.2563 42.276 44.1303 43.1393 44.1303 44.054V46H43.1643V39.42L44.1583 39.294V39.7ZM54.1532 40.862C54.1532 40.5913 54.0692 40.386 53.9012 40.246C53.7332 40.106 53.5092 40.036 53.2292 40.036C52.6692 40.036 52.2305 40.2693 51.9132 40.736C51.5959 41.1933 51.4139 41.7487 51.3672 42.402C53.2245 42.402 54.1532 41.8887 54.1532 40.862ZM52.9492 46.168C51.1945 46.168 50.3172 45.048 50.3172 42.808C50.3172 41.7813 50.5739 40.932 51.0872 40.26C51.6099 39.588 52.3425 39.252 53.2852 39.252C53.8639 39.252 54.3212 39.392 54.6572 39.672C55.0025 39.9427 55.1752 40.3207 55.1752 40.806C55.1752 41.282 55.0585 41.674 54.8252 41.982C54.6012 42.2807 54.2932 42.5093 53.9012 42.668C53.1639 42.9667 52.3099 43.116 51.3392 43.116C51.3392 44.6 51.9319 45.342 53.1172 45.342C53.7145 45.342 54.2792 45.1787 54.8112 44.852L54.9652 45.398C54.7319 45.6313 54.4239 45.818 54.0412 45.958C53.6679 46.098 53.3039 46.168 52.9492 46.168Z" fill="#FDE8E9"/>
<path d="M42.0058 101.452C42.6778 101.34 43.4618 101.284 44.3578 101.284C45.2538 101.284 45.9678 101.485 46.4998 101.886C47.0318 102.278 47.2978 102.843 47.2978 103.58C47.2978 104.093 47.1625 104.527 46.8918 104.882C46.6305 105.227 46.2525 105.465 45.7578 105.596V105.68C46.3738 105.755 46.8685 106.025 47.2418 106.492C47.6152 106.959 47.8018 107.509 47.8018 108.144C47.8018 109.087 47.4658 109.829 46.7938 110.37C46.1312 110.902 45.2818 111.168 44.2458 111.168C43.2098 111.168 42.4492 111.061 41.9638 110.846L42.0058 101.452ZM44.1338 110.258C44.9178 110.258 45.5385 110.09 45.9958 109.754C46.4532 109.418 46.6818 108.895 46.6818 108.186C46.6818 107.467 46.4858 106.973 46.0938 106.702C45.7018 106.422 45.0998 106.282 44.2878 106.282L43.0558 106.338V110.188C43.3172 110.235 43.6765 110.258 44.1338 110.258ZM45.6178 104.98C46.0098 104.7 46.2058 104.28 46.2058 103.72C46.2058 103.16 46.0425 102.768 45.7158 102.544C45.3892 102.311 44.9132 102.194 44.2878 102.194L43.0558 102.25V105.47L44.0638 105.428C44.7078 105.4 45.2258 105.251 45.6178 104.98ZM53.8873 106.226V105.204C53.6167 105.064 53.2107 104.994 52.6693 104.994C51.288 104.994 50.5973 106.035 50.5973 108.116C50.5973 109.637 51.0593 110.398 51.9833 110.398C52.3753 110.398 52.702 110.267 52.9633 110.006C53.234 109.735 53.4347 109.371 53.5653 108.914C53.78 108.121 53.8873 107.225 53.8873 106.226ZM51.8853 111.168C51.0733 111.168 50.4807 110.888 50.1073 110.328C49.734 109.768 49.5473 108.975 49.5473 107.948C49.5473 106.912 49.8087 106.039 50.3313 105.33C50.8633 104.611 51.6427 104.252 52.6693 104.252C53.0333 104.252 53.3927 104.289 53.7473 104.364C54.1113 104.439 54.4707 104.546 54.8253 104.686V108.242C54.8253 109.194 54.9093 109.796 55.0773 110.048C55.236 110.3 55.502 110.426 55.8753 110.426L55.9033 111.056C55.754 111.093 55.5673 111.112 55.3433 111.112C54.8487 111.112 54.494 110.939 54.2793 110.594C54.1207 110.342 54.0413 110.043 54.0413 109.698C54.0413 109.586 54.0507 109.465 54.0693 109.334H53.9853C53.8267 109.894 53.57 110.342 53.2153 110.678C52.87 111.005 52.4267 111.168 51.8853 111.168ZM58.6788 110.398C59.0895 110.398 59.4348 110.305 59.7148 110.118C59.9948 109.922 60.1348 109.647 60.1348 109.292C60.1348 108.919 59.9575 108.625 59.6028 108.41C59.4255 108.307 59.2108 108.205 58.9588 108.102C58.7068 107.99 58.5528 107.92 58.4968 107.892C58.0302 107.687 57.6662 107.444 57.4048 107.164C57.1528 106.884 57.0268 106.487 57.0268 105.974C57.0268 105.451 57.2368 105.036 57.6568 104.728C58.0768 104.411 58.5715 104.252 59.1408 104.252C59.7102 104.252 60.2235 104.364 60.6808 104.588L60.5268 105.218C60.0602 105.087 59.6448 105.022 59.2808 105.022C58.9262 105.022 58.6182 105.106 58.3568 105.274C58.0955 105.433 57.9648 105.657 57.9648 105.946C57.9648 106.235 58.0535 106.464 58.2308 106.632C58.4082 106.791 58.5902 106.912 58.7768 106.996C58.9728 107.08 59.1782 107.169 59.3928 107.262C59.6168 107.346 59.7615 107.407 59.8268 107.444C59.8922 107.481 60.0135 107.551 60.1908 107.654C60.3682 107.747 60.4895 107.836 60.5548 107.92C60.6295 108.004 60.7135 108.116 60.8068 108.256C60.9842 108.489 61.0728 108.821 61.0728 109.25C61.0728 109.866 60.8442 110.342 60.3868 110.678C59.9295 111.005 59.3462 111.168 58.6368 111.168C57.9368 111.168 57.3162 110.935 56.7748 110.468L56.9288 109.908C57.4608 110.235 58.0442 110.398 58.6788 110.398ZM66.1395 105.862C66.1395 105.591 66.0555 105.386 65.8875 105.246C65.7195 105.106 65.4955 105.036 65.2155 105.036C64.6555 105.036 64.2169 105.269 63.8995 105.736C63.5822 106.193 63.4002 106.749 63.3535 107.402C65.2109 107.402 66.1395 106.889 66.1395 105.862ZM64.9355 111.168C63.1809 111.168 62.3035 110.048 62.3035 107.808C62.3035 106.781 62.5602 105.932 63.0735 105.26C63.5962 104.588 64.3289 104.252 65.2715 104.252C65.8502 104.252 66.3075 104.392 66.6435 104.672C66.9889 104.943 67.1615 105.321 67.1615 105.806C67.1615 106.282 67.0449 106.674 66.8115 106.982C66.5875 107.281 66.2795 107.509 65.8875 107.668C65.1502 107.967 64.2962 108.116 63.3255 108.116C63.3255 109.6 63.9182 110.342 65.1035 110.342C65.7009 110.342 66.2655 110.179 66.7975 109.852L66.9515 110.398C66.7182 110.631 66.4102 110.818 66.0275 110.958C65.6542 111.098 65.2902 111.168 64.9355 111.168Z" fill="#FDE8E9"/>
<path d="M261.36 15.284C263.768 15.284 264.972 16.894 264.972 20.114C264.972 21.542 264.655 22.7273 264.02 23.67C263.712 24.1367 263.297 24.5053 262.774 24.776C262.261 25.0373 261.673 25.168 261.01 25.168C259.955 25.168 259.185 25.0607 258.7 24.846L258.742 15.452C259.507 15.34 260.38 15.284 261.36 15.284ZM260.87 24.258C261.906 24.258 262.662 23.8707 263.138 23.096C263.614 22.312 263.852 21.304 263.852 20.072C263.852 17.4867 262.909 16.194 261.024 16.194L259.792 16.25V24.188C260.053 24.2347 260.413 24.258 260.87 24.258ZM267.912 18.294C268.098 18.3687 268.192 18.6113 268.192 19.022C268.192 19.4233 268.159 19.7967 268.094 20.142H268.178C268.383 19.4793 268.621 18.9987 268.892 18.7C269.162 18.4013 269.587 18.252 270.166 18.252L270.6 18.308L270.474 19.274C270.352 19.246 270.203 19.232 270.026 19.232C269.662 19.232 269.349 19.3533 269.088 19.596C268.836 19.8293 268.649 20.1467 268.528 20.548C268.294 21.2667 268.178 22.074 268.178 22.97V25H267.212V20.478C267.212 19.5353 267.16 18.84 267.058 18.392L267.912 18.294ZM272.283 19.386C272.283 18.938 272.227 18.6067 272.115 18.392L272.913 18.252C273.072 18.2893 273.17 18.3827 273.207 18.532C273.254 18.6813 273.277 18.8353 273.277 18.994C273.277 19.106 273.259 19.75 273.221 20.926C273.184 22.0927 273.165 22.7413 273.165 22.872C273.165 23.0027 273.17 23.152 273.179 23.32C273.198 23.4787 273.245 23.6467 273.319 23.824C273.45 24.188 273.767 24.37 274.271 24.37C274.645 24.37 274.962 24.2393 275.223 23.978C275.494 23.7073 275.69 23.3527 275.811 22.914C276.045 22.1207 276.161 21.2527 276.161 20.31V18.42H277.099V22.242C277.099 23.0727 277.16 23.6467 277.281 23.964C277.403 24.272 277.673 24.426 278.093 24.426L278.121 25.056C277.972 25.0933 277.785 25.112 277.561 25.112C277.095 25.112 276.768 24.9767 276.581 24.706C276.404 24.426 276.315 24.104 276.315 23.74C276.315 23.6373 276.32 23.53 276.329 23.418H276.245C276.096 23.9873 275.821 24.4213 275.419 24.72C275.027 25.0187 274.509 25.168 273.865 25.168C273.231 25.168 272.787 24.972 272.535 24.58C272.283 24.188 272.157 23.6513 272.157 22.97C272.157 22.886 272.176 22.284 272.213 21.164C272.26 20.044 272.283 19.4513 272.283 19.386ZM280.742 18.7C280.742 19.1947 280.705 19.61 280.63 19.946H280.714C280.854 19.414 281.088 18.9987 281.414 18.7C281.741 18.4013 282.147 18.252 282.632 18.252C283.78 18.252 284.354 18.8167 284.354 19.946H284.438C284.728 18.8167 285.372 18.252 286.37 18.252C287.117 18.252 287.612 18.4293 287.854 18.784C288.097 19.1293 288.218 19.68 288.218 20.436C288.218 20.4733 288.209 20.9447 288.19 21.85C288.181 22.746 288.176 23.334 288.176 23.614C288.176 23.894 288.204 24.0947 288.26 24.216C288.326 24.3373 288.526 24.398 288.862 24.398L288.89 25.028C288.76 25.084 288.568 25.112 288.316 25.112C287.868 25.112 287.56 25.0093 287.392 24.804C287.234 24.5987 287.154 24.272 287.154 23.824C287.154 23.8053 287.164 23.292 287.182 22.284C287.201 21.2667 287.21 20.716 287.21 20.632C287.21 20.1093 287.154 19.7173 287.042 19.456C286.93 19.1853 286.664 19.05 286.244 19.05C285.068 19.05 284.48 20.3473 284.48 22.942V25H283.514V20.884C283.514 20.0533 283.444 19.5493 283.304 19.372C283.118 19.1573 282.852 19.05 282.506 19.05C281.312 19.05 280.714 20.3847 280.714 23.054V25H279.748V18.42L280.742 18.294V18.7ZM291.999 24.398C292.41 24.398 292.755 24.3047 293.035 24.118C293.315 23.922 293.455 23.6467 293.455 23.292C293.455 22.9187 293.278 22.6247 292.923 22.41C292.746 22.3073 292.531 22.2047 292.279 22.102C292.027 21.99 291.873 21.92 291.817 21.892C291.35 21.6867 290.986 21.444 290.725 21.164C290.473 20.884 290.347 20.4873 290.347 19.974C290.347 19.4513 290.557 19.036 290.977 18.728C291.397 18.4107 291.892 18.252 292.461 18.252C293.03 18.252 293.544 18.364 294.001 18.588L293.847 19.218C293.38 19.0873 292.965 19.022 292.601 19.022C292.246 19.022 291.938 19.106 291.677 19.274C291.416 19.4327 291.285 19.6567 291.285 19.946C291.285 20.2353 291.374 20.464 291.551 20.632C291.728 20.7907 291.91 20.912 292.097 20.996C292.293 21.08 292.498 21.1687 292.713 21.262C292.937 21.346 293.082 21.4067 293.147 21.444C293.212 21.4813 293.334 21.5513 293.511 21.654C293.688 21.7473 293.81 21.836 293.875 21.92C293.95 22.004 294.034 22.116 294.127 22.256C294.304 22.4893 294.393 22.8207 294.393 23.25C294.393 23.866 294.164 24.342 293.707 24.678C293.25 25.0047 292.666 25.168 291.957 25.168C291.257 25.168 290.636 24.9347 290.095 24.468L290.249 23.908C290.781 24.2347 291.364 24.398 291.999 24.398Z" fill="#FDE8E9"/>
<path d="M252.948 107V97.34H253.998V101.652L255.37 101.61L257.778 97.172L258.842 97.34L256.196 102.016L257.778 105.124C258.021 105.581 258.236 105.903 258.422 106.09C258.618 106.277 258.852 106.37 259.122 106.37L259.15 107.042C259.094 107.089 258.959 107.112 258.744 107.112C258.315 107.112 257.97 106.995 257.708 106.762C257.456 106.519 257.2 106.137 256.938 105.614L255.356 102.52L253.998 102.562V107H252.948ZM261.733 107.112C261.304 107.112 261.005 107.009 260.837 106.804C260.669 106.599 260.585 106.263 260.585 105.796V100.42H261.593V105.222C261.593 105.717 261.63 106.039 261.705 106.188C261.78 106.328 261.994 106.398 262.349 106.398L262.377 107.014C262.162 107.079 261.948 107.112 261.733 107.112ZM260.487 98.222C260.487 97.7833 260.702 97.564 261.131 97.564C261.523 97.564 261.719 97.7787 261.719 98.208C261.719 98.628 261.514 98.838 261.103 98.838C260.692 98.838 260.487 98.6327 260.487 98.222ZM266.362 107.168C264.617 107.168 263.744 106.095 263.744 103.948C263.744 102.884 264.001 102.002 264.514 101.302C265.037 100.602 265.779 100.252 266.74 100.252C267.291 100.252 267.781 100.345 268.21 100.532L268.056 101.26C267.674 101.129 267.272 101.064 266.852 101.064C265.48 101.064 264.794 102.035 264.794 103.976C264.794 105.553 265.373 106.342 266.53 106.342C267.118 106.342 267.669 106.179 268.182 105.852L268.336 106.398C268.103 106.631 267.8 106.818 267.426 106.958C267.062 107.098 266.708 107.168 266.362 107.168ZM270.018 107V96.738L270.97 96.57L270.984 100.42C270.984 100.915 270.946 101.377 270.872 101.806H270.956C271.114 101.33 271.385 100.952 271.768 100.672C272.15 100.392 272.598 100.252 273.112 100.252C273.625 100.252 274.045 100.392 274.372 100.672C274.708 100.952 274.876 101.349 274.876 101.862C274.876 102.366 274.675 102.791 274.274 103.136C273.872 103.472 273.373 103.705 272.776 103.836L273.588 105.25C273.84 105.679 274.068 105.983 274.274 106.16C274.479 106.328 274.722 106.412 275.002 106.412L275.03 107.042C274.974 107.089 274.834 107.112 274.61 107.112C274.162 107.112 273.802 107 273.532 106.776C273.261 106.543 273 106.183 272.748 105.698L271.656 103.612V103.36C272.244 103.36 272.752 103.229 273.182 102.968C273.611 102.707 273.826 102.333 273.826 101.848C273.826 101.587 273.737 101.386 273.56 101.246C273.392 101.106 273.172 101.036 272.902 101.036C272.463 101.036 272.09 101.199 271.782 101.526C271.24 102.114 270.97 102.977 270.97 104.116V107H270.018ZM277.989 106.398C278.4 106.398 278.745 106.305 279.025 106.118C279.305 105.922 279.445 105.647 279.445 105.292C279.445 104.919 279.268 104.625 278.913 104.41C278.736 104.307 278.521 104.205 278.269 104.102C278.017 103.99 277.863 103.92 277.807 103.892C277.341 103.687 276.977 103.444 276.715 103.164C276.463 102.884 276.337 102.487 276.337 101.974C276.337 101.451 276.547 101.036 276.967 100.728C277.387 100.411 277.882 100.252 278.451 100.252C279.021 100.252 279.534 100.364 279.991 100.588L279.837 101.218C279.371 101.087 278.955 101.022 278.591 101.022C278.237 101.022 277.929 101.106 277.667 101.274C277.406 101.433 277.275 101.657 277.275 101.946C277.275 102.235 277.364 102.464 277.541 102.632C277.719 102.791 277.901 102.912 278.087 102.996C278.283 103.08 278.489 103.169 278.703 103.262C278.927 103.346 279.072 103.407 279.137 103.444C279.203 103.481 279.324 103.551 279.501 103.654C279.679 103.747 279.8 103.836 279.865 103.92C279.94 104.004 280.024 104.116 280.117 104.256C280.295 104.489 280.383 104.821 280.383 105.25C280.383 105.866 280.155 106.342 279.697 106.678C279.24 107.005 278.657 107.168 277.947 107.168C277.247 107.168 276.627 106.935 276.085 106.468L276.239 105.908C276.771 106.235 277.355 106.398 277.989 106.398ZM288.88 102.226V101.204C288.609 101.064 288.203 100.994 287.662 100.994C286.28 100.994 285.59 102.035 285.59 104.116C285.59 105.637 286.052 106.398 286.976 106.398C287.368 106.398 287.694 106.267 287.956 106.006C288.226 105.735 288.427 105.371 288.558 104.914C288.772 104.121 288.88 103.225 288.88 102.226ZM286.878 107.168C286.066 107.168 285.473 106.888 285.1 106.328C284.726 105.768 284.54 104.975 284.54 103.948C284.54 102.912 284.801 102.039 285.324 101.33C285.856 100.611 286.635 100.252 287.662 100.252C288.026 100.252 288.385 100.289 288.74 100.364C289.104 100.439 289.463 100.546 289.818 100.686V104.242C289.818 105.194 289.902 105.796 290.07 106.048C290.228 106.3 290.494 106.426 290.868 106.426L290.896 107.056C290.746 107.093 290.56 107.112 290.336 107.112C289.841 107.112 289.486 106.939 289.272 106.594C289.113 106.342 289.034 106.043 289.034 105.698C289.034 105.586 289.043 105.465 289.062 105.334H288.978C288.819 105.894 288.562 106.342 288.208 106.678C287.862 107.005 287.419 107.168 286.878 107.168ZM293.461 100.7C293.461 101.195 293.424 101.61 293.349 101.946H293.433C293.564 101.423 293.816 101.013 294.189 100.714C294.572 100.406 295.034 100.252 295.575 100.252C296.312 100.252 296.821 100.439 297.101 100.812C297.381 101.176 297.521 101.727 297.521 102.464C297.521 102.492 297.512 102.968 297.493 103.892C297.484 104.816 297.479 105.404 297.479 105.656C297.479 105.908 297.507 106.095 297.563 106.216C297.628 106.337 297.829 106.398 298.165 106.398L298.193 107.028C298.062 107.084 297.871 107.112 297.619 107.112C297.171 107.112 296.863 107.009 296.695 106.804C296.536 106.599 296.457 106.272 296.457 105.824C296.457 105.805 296.466 105.301 296.485 104.312C296.504 103.323 296.513 102.809 296.513 102.772C296.513 102.231 296.443 101.811 296.303 101.512C296.163 101.204 295.883 101.05 295.463 101.05C295.052 101.05 294.707 101.181 294.427 101.442C294.156 101.703 293.951 102.044 293.811 102.464C293.559 103.276 293.433 104.139 293.433 105.054V107H292.467V100.42L293.461 100.294V100.7ZM301.944 107.168C301.132 107.168 300.539 106.888 300.166 106.328C299.793 105.768 299.606 104.975 299.606 103.948C299.606 102.912 299.867 102.039 300.39 101.33C300.922 100.611 301.701 100.252 302.728 100.252C303.129 100.252 303.535 100.336 303.946 100.504V96.738L304.884 96.57V104.242C304.884 105.073 304.945 105.647 305.066 105.964C305.187 106.272 305.458 106.426 305.878 106.426L305.906 107.056C305.785 107.093 305.598 107.112 305.346 107.112C304.879 107.112 304.553 106.972 304.366 106.692C304.189 106.412 304.1 106.09 304.1 105.726C304.1 105.633 304.105 105.53 304.114 105.418H304.03C303.657 106.585 302.961 107.168 301.944 107.168ZM303.946 102.646V101.204C303.675 101.064 303.269 100.994 302.728 100.994C301.347 100.994 300.656 102.035 300.656 104.116C300.656 105.637 301.118 106.398 302.042 106.398C302.406 106.398 302.719 106.281 302.98 106.048C303.251 105.805 303.451 105.488 303.582 105.096C303.825 104.359 303.946 103.542 303.946 102.646ZM311.845 97.34V101.33H316.059V97.34H317.095L317.137 107H316.059V102.24H311.845V107H310.753L310.795 97.34H311.845ZM321.11 107.112C320.68 107.112 320.382 107.009 320.214 106.804C320.046 106.599 319.962 106.263 319.962 105.796V100.42H320.97V105.222C320.97 105.717 321.007 106.039 321.082 106.188C321.156 106.328 321.371 106.398 321.726 106.398L321.754 107.014C321.539 107.079 321.324 107.112 321.11 107.112ZM319.864 98.222C319.864 97.7833 320.078 97.564 320.508 97.564C320.9 97.564 321.096 97.7787 321.096 98.208C321.096 98.628 320.89 98.838 320.48 98.838C320.069 98.838 319.864 98.6327 319.864 98.222ZM327.573 106.58C327.573 106.141 327.606 105.726 327.671 105.334H327.587C327.233 106.557 326.533 107.168 325.487 107.168C324.694 107.168 324.106 106.883 323.723 106.314C323.341 105.735 323.149 104.937 323.149 103.92C323.149 102.903 323.411 102.039 323.933 101.33C324.465 100.611 325.245 100.252 326.271 100.252C326.654 100.252 327.032 100.294 327.405 100.378C327.788 100.453 328.161 100.569 328.525 100.728L328.539 106.58C328.539 107.765 328.32 108.689 327.881 109.352C327.452 110.024 326.724 110.36 325.697 110.36C325.324 110.36 324.941 110.29 324.549 110.15C324.157 110.019 323.845 109.833 323.611 109.59L323.765 109.044C324.307 109.399 324.937 109.576 325.655 109.576C326.383 109.576 326.883 109.319 327.153 108.806C327.433 108.302 327.573 107.56 327.573 106.58ZM325.585 106.398C326.92 106.398 327.587 104.681 327.587 101.246C327.289 101.078 326.85 100.994 326.271 100.994C324.89 100.994 324.199 102.035 324.199 104.116C324.199 104.76 324.307 105.301 324.521 105.74C324.736 106.179 325.091 106.398 325.585 106.398ZM332.057 100.56C332.057 101.055 332.019 101.47 331.945 101.806H332.029C332.411 100.77 333.125 100.252 334.171 100.252C334.908 100.252 335.417 100.439 335.697 100.812C335.977 101.176 336.117 101.727 336.117 102.464C336.117 102.492 336.107 102.968 336.089 103.892C336.079 104.816 336.075 105.404 336.075 105.656C336.075 105.908 336.103 106.095 336.159 106.216C336.224 106.337 336.425 106.398 336.761 106.398L336.789 107.028C336.658 107.084 336.467 107.112 336.215 107.112C335.767 107.112 335.459 107.009 335.291 106.804C335.132 106.599 335.053 106.272 335.053 105.824C335.053 105.805 335.062 105.301 335.081 104.312C335.099 103.323 335.109 102.809 335.109 102.772C335.109 102.231 335.039 101.811 334.899 101.512C334.759 101.204 334.451 101.05 333.975 101.05C333.499 101.05 333.102 101.26 332.785 101.68C332.477 102.1 332.271 102.571 332.169 103.094C332.075 103.607 332.029 104.167 332.029 104.774V107H331.063V96.738L332.057 96.57V100.56ZM343.003 97.34V101.33H347.217V97.34H348.253L348.295 107H347.217V102.24H343.003V107H341.911L341.953 97.34H343.003ZM354.942 102.226V101.204C354.671 101.064 354.265 100.994 353.724 100.994C352.343 100.994 351.652 102.035 351.652 104.116C351.652 105.637 352.114 106.398 353.038 106.398C353.43 106.398 353.757 106.267 354.018 106.006C354.289 105.735 354.489 105.371 354.62 104.914C354.835 104.121 354.942 103.225 354.942 102.226ZM352.94 107.168C352.128 107.168 351.535 106.888 351.162 106.328C350.789 105.768 350.602 104.975 350.602 103.948C350.602 102.912 350.863 102.039 351.386 101.33C351.918 100.611 352.697 100.252 353.724 100.252C354.088 100.252 354.447 100.289 354.802 100.364C355.166 100.439 355.525 100.546 355.88 100.686V104.242C355.88 105.194 355.964 105.796 356.132 106.048C356.291 106.3 356.557 106.426 356.93 106.426L356.958 107.056C356.809 107.093 356.622 107.112 356.398 107.112C355.903 107.112 355.549 106.939 355.334 106.594C355.175 106.342 355.096 106.043 355.096 105.698C355.096 105.586 355.105 105.465 355.124 105.334H355.04C354.881 105.894 354.625 106.342 354.27 106.678C353.925 107.005 353.481 107.168 352.94 107.168ZM361.736 106.3L361.876 106.916C361.53 107.084 361.115 107.168 360.63 107.168C359.939 107.168 359.482 106.981 359.258 106.608C359.034 106.235 358.922 105.642 358.922 104.83V101.162H357.802V100.56L358.922 100.42V98.964L359.93 98.796V100.42H361.736V101.162H359.93V104.522C359.93 105.39 360.004 105.917 360.154 106.104C360.34 106.319 360.592 106.426 360.91 106.426C361.227 106.426 361.502 106.384 361.736 106.3ZM364.751 106.398C365.162 106.398 365.507 106.305 365.787 106.118C366.067 105.922 366.207 105.647 366.207 105.292C366.207 104.919 366.03 104.625 365.675 104.41C365.498 104.307 365.283 104.205 365.031 104.102C364.779 103.99 364.625 103.92 364.569 103.892C364.102 103.687 363.738 103.444 363.477 103.164C363.225 102.884 363.099 102.487 363.099 101.974C363.099 101.451 363.309 101.036 363.729 100.728C364.149 100.411 364.644 100.252 365.213 100.252C365.782 100.252 366.296 100.364 366.753 100.588L366.599 101.218C366.132 101.087 365.717 101.022 365.353 101.022C364.998 101.022 364.69 101.106 364.429 101.274C364.168 101.433 364.037 101.657 364.037 101.946C364.037 102.235 364.126 102.464 364.303 102.632C364.48 102.791 364.662 102.912 364.849 102.996C365.045 103.08 365.25 103.169 365.465 103.262C365.689 103.346 365.834 103.407 365.899 103.444C365.964 103.481 366.086 103.551 366.263 103.654C366.44 103.747 366.562 103.836 366.627 103.92C366.702 104.004 366.786 104.116 366.879 104.256C367.056 104.489 367.145 104.821 367.145 105.25C367.145 105.866 366.916 106.342 366.459 106.678C366.002 107.005 365.418 107.168 364.709 107.168C364.009 107.168 363.388 106.935 362.847 106.468L363.001 105.908C363.533 106.235 364.116 106.398 364.751 106.398Z" fill="#FDE8E9"/>
<path d="M85.0801 79.0092C85.0801 79.2316 85.0867 79.4347 85.0867 79.6509H157.492V6.27444C117.505 6.27444 85.0801 38.842 85.0801 79.0092Z" fill="#48CFAD"/>
<path d="M163.638 0V73.3668L222.548 30.4206C209.413 12.0037 187.918 0 163.638 0Z" fill="#FC6E51"/>
<path d="M157.412 82.4816H85C85.2216 108.839 99.4033 131.847 120.477 144.422L157.412 82.4816Z" fill="#FFCE54"/>
<path d="M160.586 156C200.579 156 233 123.432 233 83.2652C233 67.4763 227.998 52.8739 219.492 40.9474L160.586 83.8971L123.658 145.837C134.47 152.296 147.098 156 160.586 156Z" fill="#3BAFDA"/>
<path d="M179.541 119.49V119.004L182.385 110.922L183.609 111.138L181.107 118.374H184.599V114.54H185.931V118.374H187.299L187.137 119.49H185.931V123H184.599V119.49H179.541ZM189.437 119.49V119.004L192.281 110.922L193.505 111.138L191.003 118.374H194.495V114.54H195.827V118.374H197.195L197.033 119.49H195.827V123H194.495V119.49H189.437ZM201.854 116.556C202.85 116.556 203.348 115.71 203.348 114.018C203.348 113.31 203.252 112.758 203.06 112.362C202.88 111.966 202.514 111.768 201.962 111.768C201.038 111.768 200.576 112.596 200.576 114.252C200.576 114.72 200.594 115.104 200.63 115.404C200.678 115.692 200.798 115.956 200.99 116.196C201.194 116.436 201.482 116.556 201.854 116.556ZM204.392 114.018C204.392 114.954 204.17 115.746 203.726 116.394C203.294 117.042 202.652 117.366 201.8 117.366C200.96 117.366 200.372 117.102 200.036 116.574C199.7 116.046 199.532 115.284 199.532 114.288C199.532 113.28 199.724 112.476 200.108 111.876C200.504 111.264 201.122 110.958 201.962 110.958C202.802 110.958 203.414 111.234 203.798 111.786C204.194 112.338 204.392 113.082 204.392 114.018ZM210.062 110.922L202.25 123.594C201.986 123.51 201.782 123.384 201.638 123.216L209.45 110.544C209.714 110.628 209.918 110.754 210.062 110.922ZM209.72 122.064C210.716 122.064 211.214 121.218 211.214 119.526C211.214 118.818 211.118 118.266 210.926 117.87C210.746 117.474 210.38 117.276 209.828 117.276C208.904 117.276 208.442 118.104 208.442 119.76C208.442 120.228 208.46 120.612 208.496 120.912C208.544 121.2 208.664 121.464 208.856 121.704C209.06 121.944 209.348 122.064 209.72 122.064ZM212.258 119.526C212.258 120.462 212.036 121.254 211.592 121.902C211.16 122.55 210.518 122.874 209.666 122.874C208.826 122.874 208.238 122.61 207.902 122.082C207.566 121.554 207.398 120.792 207.398 119.796C207.398 118.788 207.59 117.984 207.974 117.384C208.37 116.772 208.988 116.466 209.828 116.466C210.668 116.466 211.28 116.742 211.664 117.294C212.06 117.846 212.258 118.59 212.258 119.526Z" fill="#22223B"/>
<path d="M104.469 53V52.514C105.141 51.842 105.849 51.08 106.593 50.228C107.337 49.364 107.805 48.8 107.997 48.536C108.201 48.26 108.459 47.888 108.771 47.42C109.083 46.952 109.311 46.556 109.455 46.232C109.851 45.368 110.049 44.618 110.049 43.982C110.049 43.346 109.821 42.872 109.365 42.56C108.921 42.236 108.309 42.074 107.529 42.074C106.761 42.074 106.011 42.194 105.279 42.434L105.009 41.444C105.909 41.096 106.875 40.922 107.907 40.922C108.939 40.922 109.785 41.192 110.445 41.732C111.105 42.26 111.435 43.046 111.435 44.09C111.435 46.07 109.851 48.674 106.683 51.902L111.687 51.848L111.759 53H104.469ZM114.887 51.056C115.727 51.752 116.639 52.1 117.623 52.1C119.567 52.1 120.539 51.17 120.539 49.31C120.539 48.482 120.299 47.852 119.819 47.42C119.351 46.988 118.739 46.772 117.983 46.772C117.239 46.772 116.369 46.838 115.373 46.97L115.769 41.138H121.295L121.133 42.254H116.939L116.705 45.764C117.317 45.692 117.881 45.656 118.397 45.656C119.501 45.656 120.365 45.986 120.989 46.646C121.613 47.294 121.925 48.2 121.925 49.364C121.925 50.516 121.559 51.446 120.827 52.154C120.095 52.862 119.147 53.216 117.983 53.216C116.519 53.216 115.391 52.802 114.599 51.974L114.887 51.056ZM126.854 46.556C127.85 46.556 128.348 45.71 128.348 44.018C128.348 43.31 128.252 42.758 128.06 42.362C127.88 41.966 127.514 41.768 126.962 41.768C126.038 41.768 125.576 42.596 125.576 44.252C125.576 44.72 125.594 45.104 125.63 45.404C125.678 45.692 125.798 45.956 125.99 46.196C126.194 46.436 126.482 46.556 126.854 46.556ZM129.392 44.018C129.392 44.954 129.17 45.746 128.726 46.394C128.294 47.042 127.652 47.366 126.8 47.366C125.96 47.366 125.372 47.102 125.036 46.574C124.7 46.046 124.532 45.284 124.532 44.288C124.532 43.28 124.724 42.476 125.108 41.876C125.504 41.264 126.122 40.958 126.962 40.958C127.802 40.958 128.414 41.234 128.798 41.786C129.194 42.338 129.392 43.082 129.392 44.018ZM135.062 40.922L127.25 53.594C126.986 53.51 126.782 53.384 126.638 53.216L134.45 40.544C134.714 40.628 134.918 40.754 135.062 40.922ZM134.72 52.064C135.716 52.064 136.214 51.218 136.214 49.526C136.214 48.818 136.118 48.266 135.926 47.87C135.746 47.474 135.38 47.276 134.828 47.276C133.904 47.276 133.442 48.104 133.442 49.76C133.442 50.228 133.46 50.612 133.496 50.912C133.544 51.2 133.664 51.464 133.856 51.704C134.06 51.944 134.348 52.064 134.72 52.064ZM137.258 49.526C137.258 50.462 137.036 51.254 136.592 51.902C136.16 52.55 135.518 52.874 134.666 52.874C133.826 52.874 133.238 52.61 132.902 52.082C132.566 51.554 132.398 50.792 132.398 49.796C132.398 48.788 132.59 47.984 132.974 47.384C133.37 46.772 133.988 46.466 134.828 46.466C135.668 46.466 136.28 46.742 136.664 47.294C137.06 47.846 137.258 48.59 137.258 49.526Z" fill="#22223B"/>
<path d="M97.9088 113V111.884H100.123L100.177 102.578L97.6928 104.18L97.0988 103.37L100.231 100.922L101.491 101.138V111.884H103.633V113H97.9088ZM106.959 104.018C106.959 103.13 107.265 102.392 107.877 101.804C108.489 101.216 109.239 100.922 110.127 100.922C111.027 100.922 111.789 101.192 112.413 101.732C113.037 102.26 113.349 102.962 113.349 103.838C113.349 105.026 112.785 105.992 111.657 106.736C112.389 107.06 112.959 107.45 113.367 107.906C113.775 108.362 113.979 108.998 113.979 109.814C113.979 110.882 113.613 111.716 112.881 112.316C112.161 112.916 111.243 113.216 110.127 113.216C109.023 113.216 108.111 112.928 107.391 112.352C106.683 111.764 106.329 110.948 106.329 109.904C106.329 109.244 106.527 108.626 106.923 108.05C107.319 107.462 107.835 106.994 108.471 106.646C107.463 106.034 106.959 105.158 106.959 104.018ZM107.589 109.886C107.589 110.57 107.829 111.116 108.309 111.524C108.801 111.92 109.407 112.118 110.127 112.118C110.859 112.118 111.471 111.92 111.963 111.524C112.467 111.128 112.719 110.582 112.719 109.886C112.719 109.418 112.617 109.076 112.413 108.86C112.221 108.632 112.065 108.47 111.945 108.374C111.837 108.266 111.651 108.146 111.387 108.014C111.123 107.882 110.925 107.786 110.793 107.726C110.277 107.486 109.797 107.288 109.353 107.132C108.177 107.876 107.589 108.794 107.589 109.886ZM112.071 103.946C112.071 103.346 111.891 102.878 111.531 102.542C111.183 102.194 110.721 102.02 110.145 102.02C109.569 102.02 109.095 102.2 108.723 102.56C108.363 102.908 108.183 103.37 108.183 103.946C108.183 104.51 108.375 104.954 108.759 105.278C109.155 105.59 109.803 105.938 110.703 106.322C111.615 105.638 112.071 104.846 112.071 103.946ZM118.854 106.556C119.85 106.556 120.348 105.71 120.348 104.018C120.348 103.31 120.252 102.758 120.06 102.362C119.88 101.966 119.514 101.768 118.962 101.768C118.038 101.768 117.576 102.596 117.576 104.252C117.576 104.72 117.594 105.104 117.63 105.404C117.678 105.692 117.798 105.956 117.99 106.196C118.194 106.436 118.482 106.556 118.854 106.556ZM121.392 104.018C121.392 104.954 121.17 105.746 120.726 106.394C120.294 107.042 119.652 107.366 118.8 107.366C117.96 107.366 117.372 107.102 117.036 106.574C116.7 106.046 116.532 105.284 116.532 104.288C116.532 103.28 116.724 102.476 117.108 101.876C117.504 101.264 118.122 100.958 118.962 100.958C119.802 100.958 120.414 101.234 120.798 101.786C121.194 102.338 121.392 103.082 121.392 104.018ZM127.062 100.922L119.25 113.594C118.986 113.51 118.782 113.384 118.638 113.216L126.45 100.544C126.714 100.628 126.918 100.754 127.062 100.922ZM126.72 112.064C127.716 112.064 128.214 111.218 128.214 109.526C128.214 108.818 128.118 108.266 127.926 107.87C127.746 107.474 127.38 107.276 126.828 107.276C125.904 107.276 125.442 108.104 125.442 109.76C125.442 110.228 125.46 110.612 125.496 110.912C125.544 111.2 125.664 111.464 125.856 111.704C126.06 111.944 126.348 112.064 126.72 112.064ZM129.258 109.526C129.258 110.462 129.036 111.254 128.592 111.902C128.16 112.55 127.518 112.874 126.666 112.874C125.826 112.874 125.238 112.61 124.902 112.082C124.566 111.554 124.398 110.792 124.398 109.796C124.398 108.788 124.59 107.984 124.974 107.384C125.37 106.772 125.988 106.466 126.828 106.466C127.668 106.466 128.28 106.742 128.664 107.294C129.06 107.846 129.258 108.59 129.258 109.526Z" fill="#22223B"/>
<path d="M173.909 32V30.884H176.123L176.177 21.578L173.693 23.18L173.099 22.37L176.231 19.922L177.491 20.138V30.884H179.633V32H173.909ZM182.707 30.056C183.511 30.752 184.375 31.1 185.299 31.1C186.223 31.1 186.931 30.878 187.423 30.434C187.927 29.978 188.179 29.354 188.179 28.562C188.179 27.77 187.939 27.188 187.459 26.816C186.979 26.432 186.325 26.24 185.497 26.24H184.345V25.25C184.957 25.178 185.455 25.142 185.839 25.142C186.223 25.142 186.559 25.16 186.847 25.196C187.591 24.644 187.963 23.918 187.963 23.018C187.963 22.394 187.741 21.914 187.297 21.578C186.853 21.242 186.271 21.074 185.551 21.074C184.843 21.074 184.135 21.194 183.427 21.434L183.157 20.444C184.057 20.096 184.993 19.922 185.965 19.922C186.937 19.922 187.741 20.198 188.377 20.75C189.025 21.29 189.349 22.046 189.349 23.018C189.349 23.99 188.899 24.836 187.999 25.556C189.043 26.084 189.565 27.074 189.565 28.526C189.565 29.63 189.199 30.524 188.467 31.208C187.747 31.88 186.835 32.216 185.731 32.216C185.119 32.216 184.507 32.114 183.895 31.91C183.295 31.694 182.803 31.388 182.419 30.992L182.707 30.056ZM194.854 25.556C195.85 25.556 196.348 24.71 196.348 23.018C196.348 22.31 196.252 21.758 196.06 21.362C195.88 20.966 195.514 20.768 194.962 20.768C194.038 20.768 193.576 21.596 193.576 23.252C193.576 23.72 193.594 24.104 193.63 24.404C193.678 24.692 193.798 24.956 193.99 25.196C194.194 25.436 194.482 25.556 194.854 25.556ZM197.392 23.018C197.392 23.954 197.17 24.746 196.726 25.394C196.294 26.042 195.652 26.366 194.8 26.366C193.96 26.366 193.372 26.102 193.036 25.574C192.7 25.046 192.532 24.284 192.532 23.288C192.532 22.28 192.724 21.476 193.108 20.876C193.504 20.264 194.122 19.958 194.962 19.958C195.802 19.958 196.414 20.234 196.798 20.786C197.194 21.338 197.392 22.082 197.392 23.018ZM203.062 19.922L195.25 32.594C194.986 32.51 194.782 32.384 194.638 32.216L202.45 19.544C202.714 19.628 202.918 19.754 203.062 19.922ZM202.72 31.064C203.716 31.064 204.214 30.218 204.214 28.526C204.214 27.818 204.118 27.266 203.926 26.87C203.746 26.474 203.38 26.276 202.828 26.276C201.904 26.276 201.442 27.104 201.442 28.76C201.442 29.228 201.46 29.612 201.496 29.912C201.544 30.2 201.664 30.464 201.856 30.704C202.06 30.944 202.348 31.064 202.72 31.064ZM205.258 28.526C205.258 29.462 205.036 30.254 204.592 30.902C204.16 31.55 203.518 31.874 202.666 31.874C201.826 31.874 201.238 31.61 200.902 31.082C200.566 30.554 200.398 29.792 200.398 28.796C200.398 27.788 200.59 26.984 200.974 26.384C201.37 25.772 201.988 25.466 202.828 25.466C203.668 25.466 204.28 25.742 204.664 26.294C205.06 26.846 205.258 27.59 205.258 28.526Z" fill="#22223B"/>
<line x1="223" y1="31.5" x2="294" y2="31.5" stroke="#FDE8E9"/>
<line x1="227" y1="112.5" x2="367" y2="112.5" stroke="#FDE8E9"/>
<line y1="52.5" x2="91" y2="52.5" stroke="#FDE8E9"/>
<line x1="40" y1="116.5" x2="95" y2="116.5" stroke="#FDE8E9"/>
</svg>
