<svg width="188" height="188" viewBox="0 0 188 188" fill="none" xmlns="http://www.w3.org/2000/svg">
<path d="M94 185.224C144.382 185.224 185.224 144.382 185.224 94C185.224 43.6183 144.382 2.77594 94 2.77594C43.6183 2.77594 2.77594 43.6183 2.77594 94C2.77594 144.382 43.6183 185.224 94 185.224Z" fill="#ECF4FF"/>
<path d="M148.532 20.8636C159.893 36.0754 166.62 54.95 166.62 75.3961C166.62 125.778 125.778 166.62 75.3961 166.62C54.95 166.62 36.0754 159.893 20.8636 148.532C37.4972 170.805 64.0643 185.224 94 185.224C144.382 185.224 185.224 144.382 185.224 94C185.224 64.0643 170.804 37.4972 148.532 20.8636Z" fill="#DDEAFB"/>
<path d="M163.556 153.017C156.191 135.892 139.17 123.898 119.345 123.898H68.6552C48.8304 123.898 31.8091 135.892 24.4444 153.017C41.1775 172.719 66.1264 185.224 94 185.224C121.874 185.224 146.822 172.719 163.556 153.017Z" fill="#524798"/>
<path d="M163.556 153.017C159.955 144.644 154.041 137.503 146.625 132.386C129.907 153.253 104.214 166.62 75.3961 166.62C56.816 166.62 39.5343 161.064 25.1189 151.524C24.8865 152.018 24.6603 152.515 24.4444 153.017C41.1775 172.719 66.1264 185.224 94 185.224C121.874 185.224 146.822 172.719 163.556 153.017Z" fill="#453D81"/>
<path d="M126.769 30.8841L118.463 22.987C114.301 19.0306 108.288 17.7095 102.852 19.5575L73.0134 29.7003C65.1765 32.3643 59.9062 39.7223 59.9062 47.9995V66.122H130.21V38.9039C130.21 35.872 128.966 32.9731 126.769 30.8841Z" fill="#FFD064"/>
<path d="M126.769 30.8838L118.463 22.9867C114.301 19.0302 108.288 17.7091 102.852 19.5571L91.5208 23.4089C94.9628 23.6994 98.2733 25.1402 100.865 27.6044L109.171 35.5015C111.368 37.5905 112.612 40.4898 112.612 43.5216V66.1217H130.21V38.9035C130.21 35.872 128.966 32.9731 126.769 30.8838Z" fill="#FFC250"/>
<path d="M127.969 74.4539C124.366 82.1028 124.056 92.272 128.578 94.4017C133.101 96.5314 140.743 89.8152 144.345 82.1663C147.947 74.5174 145.62 69.9492 141.098 67.8195C136.576 65.6899 131.571 66.805 127.969 74.4539Z" fill="#FFCBBE"/>
<path d="M99.3573 146.235H90.7578C79.5126 146.235 70.3969 137.119 70.3969 125.874V103.96H119.718V125.874C119.719 137.119 110.602 146.235 99.3573 146.235Z" fill="#EAAC9D"/>
<path d="M104.847 103.96V125.874C104.847 136.053 97.3785 144.486 87.6223 145.994C88.6446 146.152 89.6918 146.235 90.7581 146.235H99.3576C110.603 146.235 119.719 137.119 119.719 125.874V103.96H104.847Z" fill="#DF9380"/>
<path d="M123.825 55.4431H66.2902C62.7641 55.4431 59.9055 58.3017 59.9055 61.8278V84.5567C59.9055 96.9272 66.0636 108.486 76.3305 115.387L86.5461 122.254C91.6929 125.713 98.4216 125.713 103.569 122.254L113.784 115.387C124.051 108.486 130.209 96.9272 130.209 84.5567V61.8278C130.21 58.3017 127.351 55.4431 123.825 55.4431Z" fill="#FFCBBE"/>
<path d="M119.76 55.4431V84.5563C119.76 96.9269 113.602 108.486 103.335 115.387L93.1191 122.253C92.0803 122.952 90.9747 123.502 89.8331 123.918C94.3477 125.565 99.4615 125.014 103.569 122.253L113.785 115.387C124.052 108.486 130.21 96.9269 130.21 84.5563V61.8274C130.21 58.3013 127.351 55.4427 123.825 55.4427H119.76V55.4431Z" fill="#EAAC9D"/>
<path d="M127.969 74.4539C124.366 82.1028 124.056 92.272 128.578 94.4017C133.101 96.5314 140.743 89.8152 144.345 82.1663C147.947 74.5174 145.62 69.9492 141.098 67.8195C136.576 65.6899 131.571 66.805 127.969 74.4539Z" fill="#EAAC9D"/>
<path d="M62.1469 74.4539C65.749 82.1028 66.0593 92.272 61.537 94.4017C57.0147 96.5314 49.3728 89.8152 45.7703 82.1663C42.1678 74.5174 44.4958 69.9492 49.0177 67.8195C53.5404 65.6895 58.5448 66.805 62.1469 74.4539Z" fill="#FFCBBE"/>
<path d="M160.468 27.5321C142.714 9.77784 119.108 0 94 0C68.8917 0 45.2863 9.77784 27.5321 27.5321C9.77784 45.2863 0 68.8917 0 94C0 98.6038 0.335977 103.23 0.99875 107.751C1.22127 109.268 2.63053 110.317 4.14812 110.095C5.66497 109.872 6.71439 108.462 6.49224 106.946C5.86802 102.691 5.55188 98.335 5.55188 94C5.55188 45.2294 45.2294 5.55188 94 5.55188C142.771 5.55188 182.448 45.2294 182.448 94C182.448 114.244 175.607 132.917 164.121 147.841C155.805 132.454 140.041 122.309 122.494 121.224V111.52C126.18 107.491 129.015 102.736 130.803 97.5639C136.767 97.2962 143.495 90.4842 146.856 83.349C150.69 75.2077 148.979 68.4632 142.28 65.308C139.053 63.7885 135.848 63.7015 132.985 64.9687V38.9039C132.985 35.1296 131.416 31.4731 128.681 28.872L120.375 20.9749C115.45 16.2921 108.392 14.7418 101.958 16.9292L72.1197 27.072C63.1537 30.1197 57.1296 38.5297 57.1296 47.9995V64.9709C54.2652 63.7037 51.0593 63.7896 47.8354 65.3076C41.1356 68.4628 39.4249 75.207 43.2591 83.349C46.6552 90.5598 53.3468 97.3153 59.3056 97.5687C61.0835 102.733 63.9094 107.488 67.6209 111.532V121.142C49.2009 121.513 32.5556 131.767 23.887 147.821C17.4359 139.487 12.4212 129.94 9.28434 119.507C8.84298 118.039 7.29455 117.207 5.82653 117.648C4.35852 118.089 3.5261 119.637 3.96746 121.105C7.6397 133.32 13.8845 144.736 22.1095 154.519C26.6277 159.919 31.7786 164.804 37.4109 169.065C53.8183 181.452 73.3865 188 94 188C119.108 188 142.714 178.222 160.468 160.468C178.222 142.714 188 119.108 188 94C188 68.8917 178.222 45.2863 160.468 27.5321ZM73.1728 116.545C73.9571 117.195 83.906 123.802 84.998 124.557C88.0538 126.611 91.5556 127.638 95.0579 127.638C98.5597 127.638 102.062 126.611 105.118 124.557C106.256 123.77 116.116 117.222 116.943 116.548V125.711C116.943 135.497 108.981 143.459 99.195 143.459H90.9204C81.1345 143.459 73.1728 135.498 73.1728 125.711V116.545ZM73.9064 32.3287L103.746 22.1858C108.219 20.6646 113.126 21.7426 116.55 24.9989L124.856 32.896C126.494 34.4539 127.434 36.6438 127.434 38.9043V53.4096C126.326 52.9326 125.106 52.6675 123.825 52.6675H87.3917C85.8587 52.6675 84.6158 53.9105 84.6158 55.4435C84.6158 56.9765 85.8587 58.2194 87.3917 58.2194H123.825C125.815 58.2194 127.434 59.8383 127.434 61.8281V76.7888C127.434 78.3218 128.677 79.5648 130.21 79.5648C131.743 79.5648 132.986 78.3218 132.986 76.7888V71.7271C135.018 69.5101 137.234 69.068 139.915 70.3307C141.319 70.992 145.592 73.0042 141.834 80.9836C139.454 86.0368 135.35 90.1596 132.37 91.538C132.428 91.213 132.482 90.8877 132.532 90.5606C132.763 89.0448 131.721 87.6293 130.205 87.3991C128.687 87.1681 127.274 88.2102 127.044 89.7259C125.601 99.2144 120.204 107.728 112.236 113.083L102.021 119.95C97.7912 122.792 92.3249 122.793 88.0953 119.95L77.8794 113.083C68.363 106.687 62.6815 96.0228 62.6815 84.5563V61.8274C62.6815 59.8376 64.3004 58.2187 66.2902 58.2187H74.3239C75.8569 58.2187 77.0998 56.9757 77.0998 55.4427C77.0998 53.9097 75.8569 52.6668 74.3239 52.6668H66.2902C65.0094 52.6668 63.7896 52.9319 62.6815 53.4089V47.9991C62.6815 40.9084 67.1924 34.6107 73.9064 32.3287ZM48.2818 80.9836C44.5241 73.0039 48.797 70.9917 50.2008 70.3304C52.8823 69.0676 55.0965 69.5112 57.13 71.7286V84.5563C57.13 86.9166 57.3411 89.2464 57.7439 91.5259C54.8798 90.2125 50.8331 86.4011 48.2818 80.9836ZM94 182.448C68.2539 182.448 44.234 171.012 27.7458 152.463C35.1152 137.041 50.5158 127.071 67.6462 126.693C68.1628 139.086 78.4026 149.011 90.9208 149.011H99.1953C111.682 149.011 121.903 139.137 122.467 126.788C138.73 127.908 153.238 137.758 160.274 152.505C144.055 170.855 120.358 182.448 94 182.448Z" fill="black"/>
<path d="M111.423 81.7014C113.77 81.7014 115.673 79.7987 115.673 77.4516C115.673 75.1045 113.77 73.2018 111.423 73.2018C109.076 73.2018 107.173 75.1045 107.173 77.4516C107.173 79.7987 109.076 81.7014 111.423 81.7014Z" fill="black"/>
<path d="M82.7042 98.9761C85.4673 102.983 90.0175 105.374 94.8761 105.374C99.7347 105.374 104.285 102.983 107.048 98.9761C107.918 97.7141 107.601 95.9854 106.339 95.1151C105.077 94.2449 103.348 94.5622 102.478 95.8246C100.751 98.328 97.9094 99.8229 94.8761 99.8229C91.8428 99.8229 89.0011 98.328 87.2746 95.8246C86.404 94.5625 84.6756 94.2449 83.4136 95.1151C82.1512 95.9857 81.834 97.7141 82.7042 98.9761Z" fill="black"/>
<path d="M78.2708 81.7014C80.6179 81.7014 82.5207 79.7987 82.5207 77.4516C82.5207 75.1045 80.6179 73.2018 78.2708 73.2018C75.9237 73.2018 74.021 75.1045 74.021 77.4516C74.021 79.7987 75.9237 81.7014 78.2708 81.7014Z" fill="black"/>
</svg>
