<svg width="20" height="20" viewBox="0 0 20 20" fill="none" xmlns="http://www.w3.org/2000/svg">
<path d="M17.0711 2.92895C15.1823 1.0402 12.6711 0 10 0C7.32891 0 4.8177 1.0402 2.92891 2.92895C1.0402 4.8177 0 7.32891 0 10C0 12.6711 1.0402 15.1823 2.92891 17.0711C4.8177 18.9598 7.32891 20 10 20C12.6711 20 15.1823 18.9598 17.0711 17.0711C18.9598 15.1823 20 12.6711 20 10C20 7.32891 18.9598 4.8177 17.0711 2.92895ZM10 18.8281C7.64191 18.8281 5.425 17.9098 3.75758 16.2424C2.09016 14.575 1.17188 12.3581 1.17188 10C1.17188 7.64191 2.09016 5.425 3.75758 3.75758C5.425 2.09016 7.64191 1.17188 10 1.17188C12.3581 1.17188 14.575 2.09016 16.2424 3.75758C17.9098 5.425 18.8281 7.64191 18.8281 10C18.8281 12.3581 17.9098 14.575 16.2424 16.2424C14.575 17.9098 12.3581 18.8281 10 18.8281Z" fill="#FDE8E9"/>
<path d="M15.8724 9.99999C15.8724 11.4084 15.3738 12.7025 14.5441 13.7154L15.3756 14.5469C16.4158 13.319 17.0443 11.7316 17.0443 9.99995H15.8724V9.99999Z" fill="#FDE8E9"/>
<path d="M13.7155 14.5441C12.7026 15.3738 11.4085 15.8724 10 15.8724V17.0442C11.7316 17.0442 13.319 16.4158 14.547 15.3755L13.7155 14.5441Z" fill="#FDE8E9"/>
<path d="M10 2.95575C8.2684 2.95575 6.68102 3.58419 5.45305 4.62446L6.28453 5.45594C7.29742 4.62622 8.59152 4.12762 9.99996 4.12762V2.95575H10Z" fill="#FDE8E9"/>
<path d="M5.45591 6.28455L4.62442 5.45306C3.58419 6.68099 2.95575 8.26838 2.95575 9.99998H4.12763C4.12763 8.5915 4.62622 7.29744 5.45591 6.28455Z" fill="#FDE8E9"/>
<path d="M13.9193 10C13.9193 7.83891 12.1611 6.08075 9.99999 6.08075C7.8389 6.08075 6.08073 7.83891 6.08073 10C6.08073 12.1611 7.8389 13.9193 9.99999 13.9193C12.1611 13.9193 13.9193 12.1611 13.9193 10ZM7.25261 10C7.25261 8.48509 8.48507 7.25262 9.99999 7.25262C11.5149 7.25262 12.7474 8.48509 12.7474 10C12.7474 11.5149 11.5149 12.7474 9.99999 12.7474C8.48507 12.7474 7.25261 11.5149 7.25261 10Z" fill="#FDE8E9"/>
<path d="M9.41406 9.41406H10.5859V10.5859H9.41406V9.41406Z" fill="#FDE8E9"/>
</svg>
