<svg width="34" height="32" viewBox="0 0 34 32" fill="none" xmlns="http://www.w3.org/2000/svg">
<g clip-path="url(#clip0)">
<path d="M27.6005 10.2091C26.904 10.5146 26.1618 10.7171 25.3879 10.8154C26.184 10.3402 26.7916 9.59332 27.0772 8.69314C26.335 9.13562 25.5155 9.44817 24.6422 9.62259C23.9375 8.87224 22.933 8.40752 21.8372 8.40752C19.7113 8.40752 17.9997 10.133 17.9997 12.2482C17.9997 12.5526 18.0255 12.8452 18.0887 13.1238C14.8963 12.9681 12.0714 11.4382 10.1737 9.10753C9.84241 9.68229 9.64807 10.3402 9.64807 11.0484C9.64807 12.3782 10.3329 13.5569 11.3538 14.2394C10.7368 14.2277 10.1316 14.0486 9.61881 13.7665C9.61881 13.7782 9.61881 13.7934 9.61881 13.8086C9.61881 15.6745 10.9499 17.2244 12.6954 17.5814C12.3828 17.6669 12.0421 17.7078 11.6886 17.7078C11.4427 17.7078 11.1945 17.6938 10.9616 17.6423C11.4591 19.1629 12.871 20.2808 14.5497 20.3171C13.2432 21.339 11.5844 21.9547 9.78856 21.9547C9.47364 21.9547 9.1716 21.9407 8.86957 21.9021C10.5706 22.9989 12.5865 23.6252 14.7605 23.6252C21.8267 23.6252 25.69 17.7722 25.69 12.6989C25.69 12.5292 25.6841 12.3653 25.6759 12.2026C26.438 11.6618 27.0784 10.9863 27.6005 10.2091Z" fill="#FDE8E9"/>
</g>
<path d="M33.5 15.89C33.5 24.3584 26.145 31.28 17 31.28C7.85496 31.28 0.5 24.3584 0.5 15.89C0.5 7.4216 7.85496 0.5 17 0.5C26.145 0.5 33.5 7.4216 33.5 15.89Z" stroke="#FDE8E9"/>
<defs>
<clipPath id="clip0">
<rect width="18.731" height="18.7294" fill="white" transform="translate(8.86957 6.65163)"/>
</clipPath>
</defs>
</svg>
