<svg width="9" height="20" viewBox="0 0 9 20" fill="none" xmlns="http://www.w3.org/2000/svg">
<path d="M8.07118 13.9727C7.72216 13.5022 7.15737 13.5022 6.80199 13.9727L5.50108 15.7264V7.43675C5.50108 6.76947 5.10128 6.23051 4.6063 6.23051C4.11131 6.23051 3.71152 6.76947 3.71152 7.43675V15.7264L2.4106 13.9812C2.06157 13.5107 1.49678 13.5107 1.14141 13.9812C0.792383 14.4518 0.792383 15.2131 1.14141 15.6922L3.9717 19.4991C4.14939 19.7387 4.37784 19.8499 4.6063 19.8499C4.83475 19.8499 5.06321 19.7301 5.24089 19.4991L8.07118 15.6837C8.42021 15.2131 8.42021 14.4518 8.07118 13.9727Z" fill="#FDE8E9"/>
<path d="M8.06401 4.16623L5.23372 0.350751C5.05603 0.111214 4.82758 0 4.59912 0C4.37067 0 4.14222 0.119769 3.96453 0.350751L1.13424 4.16623C0.78521 4.63675 0.78521 5.39814 1.13424 5.87721C1.48326 6.34773 2.04805 6.34773 2.40343 5.87721L3.70435 4.12346V12.4132C3.70435 13.0804 4.10414 13.6194 4.59912 13.6194C5.09411 13.6194 5.4939 13.0804 5.4939 12.4132V4.12346L6.79482 5.87721C7.14385 6.34773 7.70864 6.34773 8.06401 5.87721C8.41304 5.40669 8.41304 4.64531 8.06401 4.16623Z" fill="#FDE8E9"/>
</svg>
