<svg width="34" height="33" viewBox="0 0 34 33" fill="none" xmlns="http://www.w3.org/2000/svg">
<path d="M33.5 16.5C33.5 24.9692 26.145 31.8913 17 31.8913C7.855 31.8913 0.5 24.9692 0.5 16.5C0.5 8.03085 7.855 1.1087 17 1.1087C26.145 1.1087 33.5 8.03085 33.5 16.5Z" stroke="#FDE8E9"/>
<g clip-path="url(#clip0)">
<path d="M15.8874 13.3921C15.4995 13.1603 15.0023 13.4405 15.0023 13.8948V19.3579C15.0023 19.8145 15.5003 20.0908 15.8874 19.8613L20.4679 17.1336C20.8488 16.9065 20.848 16.3555 20.4687 16.1276L15.8874 13.3921ZM16.173 18.3285V14.9257L19.0256 16.6295L16.173 18.3285Z" fill="#FDE8E9"/>
<path d="M23.6646 9.81374C20.0332 9.27445 14.9602 9.27445 11.3272 9.81374C9.87397 10.0291 8.72904 11.1702 8.4793 12.6515C8.01414 15.401 8.01414 17.8524 8.4793 20.6012C8.72904 22.0833 9.87397 23.2235 11.3272 23.439C13.1472 23.709 15.3262 23.844 17.5045 23.844C19.6788 23.844 21.8524 23.7098 23.6654 23.4397C25.1171 23.2243 26.2612 22.0841 26.5125 20.602C26.9777 17.8524 26.9777 15.4003 26.5125 12.6507C26.2628 11.1702 25.1178 10.0291 23.6646 9.81374V9.81374ZM25.3582 20.4069C25.192 21.3871 24.4428 22.1411 23.4929 22.2815C19.9668 22.8052 15.0344 22.8052 11.4989 22.2808C10.5483 22.1395 9.79827 21.3864 9.63281 20.4061C9.18483 17.7572 9.18483 15.4962 9.63281 12.8458C9.79905 11.8656 10.5483 11.1132 11.4997 10.9712C13.2651 10.7097 15.3809 10.5786 17.4951 10.5786C19.6109 10.5786 21.7268 10.7097 23.4922 10.9712C24.4428 11.1124 25.1928 11.8656 25.3582 12.8458C25.8062 15.4962 25.8062 17.7572 25.3582 20.4069Z" fill="#FDE8E9"/>
</g>
<defs>
<clipPath id="clip0">
<rect width="18.731" height="18.731" fill="white" transform="translate(8.13043 7.26088)"/>
</clipPath>
</defs>
</svg>
